# 3ds Max Wavefront OBJ Exporter v0.99 - (c)2007 guruware
# File Created: 17.03.2025 20:17:21

mtllib cofre.mtl

#
# object Cofre
#

v  0.1181 0.6616 4.2722
v  0.1150 0.6682 3.5168
v  -0.5153 0.6245 3.8626
v  -0.4689 0.6222 4.0798
v  -10.8342 -1.0105 3.9788
v  -10.8184 -0.7287 3.9249
v  -10.8600 -0.7190 -0.0000
v  -10.8612 -0.9969 -0.0000
v  -10.2129 -1.0253 6.4629
v  -11.2695 -1.1064 4.3618
v  -10.8022 -1.0867 5.8543
v  -9.4509 -0.2728 2.4069
v  -10.4934 -0.4253 3.6384
v  0.1256 0.6456 6.1161
v  -0.2196 0.0485 6.9960
v  -0.2204 -0.2604 7.0009
v  -11.4051 -1.1272 3.7554
v  -10.7207 -1.2642 6.3275
v  -10.5672 -0.3981 2.1202
v  -11.4870 -1.1384 3.3861
v  -10.5760 -0.4006 -0.0000
v  -9.5705 -0.0769 2.1495
v  0.1007 0.6989 -0.0000
v  0.0890 0.6981 -0.0000
v  -11.5431 -1.1156 -0.0000
v  -9.5458 -0.0624 -0.0000
v  -0.5153 0.6245 -3.8626
v  0.1150 0.6682 -3.5168
v  0.1181 0.6616 -4.2721
v  -0.4689 0.6222 -4.0798
v  -10.8184 -0.7287 -3.9249
v  -10.8342 -1.0105 -3.9788
v  -10.2129 -1.0253 -6.4629
v  -10.8022 -1.0867 -5.8543
v  -11.2695 -1.1064 -4.3618
v  -10.4934 -0.4253 -3.6384
v  -9.4509 -0.2728 -2.4069
v  0.1256 0.6456 -6.1161
v  -0.2196 0.0485 -6.9960
v  -0.2204 -0.2604 -7.0009
v  -11.4051 -1.1272 -3.7554
v  -10.7207 -1.2642 -6.3275
v  -10.5672 -0.3981 -2.1202
v  -11.4870 -1.1384 -3.3861
v  -9.5705 -0.0769 -2.1495
# 45 vertices

vn -0.0699 0.9975 0.0090
vn -0.0643 0.9979 0.0090
vn -0.0713 0.9973 0.0185
vn -0.0890 0.9958 0.0225
vn -0.4593 0.8464 0.2697
vn -0.7274 0.4594 0.5097
vn -0.9338 0.3578 -0.0000
vn -0.7636 0.6457 -0.0000
vn -0.1770 0.9786 0.1048
vn -0.1880 0.9816 0.0322
vn -0.2109 0.9717 0.1061
vn -0.1710 0.9181 0.3577
vn -0.3642 0.8982 0.2460
vn -0.1553 0.9503 0.2699
vn -0.2705 0.5182 0.8113
vn -0.0549 0.0157 0.9984
vn -0.2057 0.9785 0.0147
vn -0.4748 0.7941 0.3795
vn -0.5379 0.8420 0.0413
vn -0.2021 0.9793 0.0112
vn -0.5484 0.8362 -0.0000
vn -0.2171 0.9194 0.3280
vn -0.0644 0.9979 -0.0000
vn -0.0708 0.9975 -0.0000
vn -0.1715 0.9852 -0.0000
vn -0.1957 0.9807 -0.0000
vn -0.0713 0.9973 -0.0185
vn -0.0643 0.9979 -0.0090
vn -0.0699 0.9975 -0.0090
vn -0.0890 0.9958 -0.0225
vn -0.7274 0.4594 -0.5097
vn -0.4593 0.8464 -0.2697
vn -0.1770 0.9786 -0.1048
vn -0.2109 0.9717 -0.1061
vn -0.1880 0.9816 -0.0322
vn -0.3642 0.8982 -0.2460
vn -0.1710 0.9181 -0.3577
vn -0.1553 0.9503 -0.2699
vn -0.2705 0.5182 -0.8113
vn -0.0549 0.0157 -0.9984
vn -0.2057 0.9785 -0.0147
vn -0.4748 0.7941 -0.3795
vn -0.5379 0.8420 -0.0413
vn -0.2021 0.9793 -0.0112
vn -0.2171 0.9194 -0.3280
# 45 vertex normals

vt 0.3229 0.5203 0.0000
vt 0.3228 0.5379 0.0000
vt 0.3083 0.5298 0.0000
vt 0.3093 0.5248 0.0000
vt 0.0695 0.5272 0.0000
vt 0.0699 0.5284 0.0000
vt 0.0689 0.6196 0.0000
vt 0.0839 0.4694 0.0000
vt 0.0595 0.5183 0.0000
vt 0.0703 0.4836 0.0000
vt 0.1015 0.5637 0.0000
vt 0.0774 0.5351 0.0000
vt 0.3231 0.4775 0.0000
vt 0.3151 0.4592 0.0000
vt 0.3151 0.4591 0.0000
vt 0.0563 0.5323 0.0000
vt 0.0722 0.4726 0.0000
vt 0.0757 0.5703 0.0000
vt 0.0544 0.5409 0.0000
vt 0.0755 0.6196 0.0000
vt 0.0988 0.5696 0.0000
vt 0.3225 0.6196 0.0000
vt 0.3222 0.6196 0.0000
vt 0.0531 0.6196 0.0000
vt 0.0993 0.6196 0.0000
# 25 texture coords

o Cofre
g Cofre
usemtl Mercedes_G_Class_Standard00FF80
s 1
f 1/1/1 2/2/2 3/3/3 
f 3/3/3 4/4/4 1/1/1 
f 5/5/5 6/6/6 7/7/7 
f 7/7/7 8/7/8 5/5/5 
s 4
f 9/8/9 5/5/5 10/9/10 
f 10/9/10 11/10/11 9/8/9 
s 1
f 12/11/12 13/12/13 14/13/14 
f 14/13/14 4/4/4 12/11/12 
s 4
f 15/14/15 5/5/5 9/8/9 
f 9/8/9 16/15/16 15/14/15 
f 17/16/17 10/9/10 5/5/5 
s 2
f 11/10/11 18/17/18 9/8/9 
f 13/12/13 19/18/19 6/6/6 
s 4
f 20/19/20 17/16/17 5/5/5 
s 8
f 5/5/5 15/14/15 6/6/6 
s 2
f 6/6/6 19/18/19 21/20/21 
f 21/20/21 7/7/7 6/6/6 
s 1
f 12/11/12 22/21/22 19/18/19 
f 13/12/13 12/11/12 19/18/19 
s 32
f 13/12/13 6/6/6 15/14/15 
f 15/14/15 14/13/14 13/12/13 
s 1
f 12/11/12 4/4/4 3/3/3 
f 3/3/3 22/21/22 12/11/12 
f 4/4/4 14/13/14 1/1/1 
f 23/22/23 24/23/24 3/3/3 
f 3/3/3 2/2/2 23/22/23 
s 4
f 20/19/20 5/5/5 8/7/8 
f 8/7/8 25/24/25 20/19/20 
s 1
f 22/21/22 3/3/3 24/23/24 
f 24/23/24 26/25/26 22/21/22 
f 21/20/21 19/18/19 22/21/22 
f 22/21/22 26/25/26 21/20/21 
f 27/3/27 28/2/28 29/1/29 
f 29/1/29 30/4/30 27/3/27 
f 8/7/8 7/7/7 31/6/31 
f 31/6/31 32/5/32 8/7/8 
s 4
f 33/8/33 34/10/34 35/9/35 
f 35/9/35 32/5/32 33/8/33 
s 1
f 36/12/36 37/11/37 30/4/30 
f 30/4/30 38/13/38 36/12/36 
s 4
f 33/8/33 32/5/32 39/14/39 
f 39/14/39 40/15/40 33/8/33 
f 41/16/41 32/5/32 35/9/35 
s 2
f 34/10/34 33/8/33 42/17/42 
f 36/12/36 31/6/31 43/18/43 
s 4
f 44/19/44 32/5/32 41/16/41 
s 8
f 32/5/32 31/6/31 39/14/39 
s 2
f 21/20/21 43/18/43 31/6/31 
f 31/6/31 7/7/7 21/20/21 
s 1
f 37/11/37 43/18/43 45/21/45 
f 36/12/36 43/18/43 37/11/37 
s 32
f 36/12/36 38/13/38 39/14/39 
f 39/14/39 31/6/31 36/12/36 
s 1
f 37/11/37 45/21/45 27/3/27 
f 27/3/27 30/4/30 37/11/37 
f 30/4/30 29/1/29 38/13/38 
f 27/3/27 24/23/24 23/22/23 
f 23/22/23 28/2/28 27/3/27 
s 4
f 8/7/8 32/5/32 44/19/44 
f 44/19/44 25/24/25 8/7/8 
s 1
f 24/23/24 27/3/27 45/21/45 
f 45/21/45 26/25/26 24/23/24 
f 26/25/26 45/21/45 43/18/43 
f 43/18/43 21/20/21 26/25/26 
# 64 faces

