# 3ds Max Wavefront OBJ Exporter v0.99 - (c)2007 guruware
# File Created: 28.03.2025 21:30:53

mtllib cuerpo.mtl

#
# object s_0008
#

v  8.5942 0.2900 7.0278
v  8.8203 6.3959 6.2791
v  -2.2545 6.3558 6.2598
v  -5.0084 0.4497 6.9867
v  -5.2848 6.3440 6.2624
v  -8.7389 0.4417 6.9960
v  -17.1915 -2.2567 6.9098
v  -16.2010 -1.8433 7.0959
v  -18.7322 -0.6322 6.4629
v  -18.7742 -1.1718 6.5087
v  -19.2400 -0.8711 6.3275
v  -19.1997 -1.2722 6.3969
v  -17.6163 -2.7914 6.7727
v  -9.6129 -4.4219 7.0613
v  -8.7397 0.1327 7.0009
v  -10.5293 -2.7624 7.0156
v  -12.0193 -1.7626 7.0787
v  -11.1918 -2.0927 7.0630
v  -4.8277 -4.2389 7.0680
v  6.8738 -4.6365 7.1039
v  6.1781 -2.7895 7.0266
v  7.6235 -3.4311 7.1690
v  17.4705 0.1858 7.0545
v  16.0238 6.4693 6.2734
v  8.3666 -2.4187 7.1148
v  -8.7452 -6.4831 7.0709
v  -4.8665 -6.4324 7.1772
v  -9.2193 -6.0419 7.6124
v  -9.5091 -6.0288 7.6329
v  -9.4030 -6.5071 7.9209
v  -9.0645 -6.4718 7.8557
v  -10.8080 -3.0246 7.9366
v  -11.0469 -3.1404 7.9855
v  -10.4226 -4.2208 7.9665
v  -10.1797 -4.0858 7.9347
v  17.3598 -3.3527 7.0956
v  15.0293 -3.5609 7.1493
v  15.6842 -4.6463 7.1028
v  17.4101 -4.6553 7.0400
v  14.5201 -2.8842 7.1156
v  13.9563 -2.2279 7.0913
v  13.2664 -1.9141 7.1193
v  17.4082 -5.2150 7.5465
v  17.7127 -5.2080 7.5238
v  17.6984 -4.7531 7.4452
v  17.3716 -4.7606 7.4840
v  13.1005 -2.1717 7.9822
v  12.9884 -2.4474 8.0269
v  13.5771 -2.6901 8.0038
v  13.7323 -2.4280 7.9552
v  15.3383 -4.7569 7.5507
v  15.4105 -5.2682 7.6261
v  15.9484 -6.2847 7.1339
v  17.4819 -6.1606 7.0479
v  15.0916 -4.7850 7.5849
v  14.7236 -3.7236 7.7561
v  14.4802 -3.8287 7.7983
v  10.2318 -2.0535 7.9677
v  9.3162 -2.1703 7.9791
v  9.4735 -2.4640 8.0263
v  10.3124 -2.3806 7.9833
v  14.2470 -3.0190 7.9056
v  14.0181 -3.1394 7.9424
v  10.1886 -1.8040 7.0824
v  9.1499 -1.9507 7.1344
v  5.9028 -6.4831 7.0473
v  6.2414 -6.5130 7.8586
v  5.9376 -7.0309 7.9000
v  6.2167 -7.0822 7.9203
v  6.5607 -6.5124 7.8796
v  -9.1085 -7.0621 7.9212
v  -5.1136 -7.0036 7.8511
v  -4.8084 -6.4772 7.8120
v  6.3531 -6.1539 7.6143
v  6.7113 -6.0848 7.6200
v  -19.0132 -3.5350 6.3797
v  -17.9762 -3.6394 6.7831
v  -19.3639 -3.4355 6.2600
v  -19.7582 -3.6143 6.9248
v  -18.3287 -3.5673 7.4037
v  -19.1413 -5.8711 6.9799
v  -18.5002 -5.6288 7.3879
v  -17.7143 -3.7311 7.7300
v  -19.7582 -3.6055 6.9248
v  -19.4695 -5.8883 6.8167
v  -18.4565 -5.8128 6.8808
v  -18.2689 -5.6288 7.4663
v  -17.4477 -3.9067 7.8456
v  -17.1122 -3.2048 7.8734
v  -17.3304 -2.9994 7.8122
v  -16.7774 -2.6306 7.8960
v  -16.9892 -2.4631 7.8462
v  -16.2599 -2.0407 7.8287
v  -16.1603 -2.3242 7.9156
v  -12.2625 -2.2537 7.9887
v  -12.0787 -2.0044 7.9542
v  -11.6475 -2.4518 7.9935
v  -11.4305 -2.2625 7.9475
v  7.1979 -4.6861 7.7240
v  7.5399 -4.7562 7.7928
v  7.9639 -3.4739 7.8793
v  8.2463 -3.6251 7.9150
v  8.8433 -2.8285 7.9951
v  8.6542 -2.5465 7.9540
v  -9.4030 -6.5071 5.1427
v  -9.5091 -6.0288 5.1427
v  -11.0469 -3.1404 5.1427
v  -10.4226 -4.2208 5.1427
v  12.9884 -2.4474 5.1427
v  13.5771 -2.6901 5.1427
v  15.4105 -5.2682 5.1427
v  15.0916 -4.7850 5.1427
v  14.4802 -3.8287 5.1427
v  9.4735 -2.4640 5.1427
v  10.3124 -2.3806 5.1427
v  14.0181 -3.1394 5.1427
v  6.2167 -7.0822 5.1427
v  6.5607 -6.5124 5.1427
v  -9.1085 -7.0621 5.1427
v  -5.1136 -7.0036 5.1427
v  6.7113 -6.0848 5.1427
v  -18.4565 -5.7120 5.1427
v  -17.4477 -3.9067 5.1427
v  -17.1122 -3.2048 5.1427
v  -16.7774 -2.6306 5.1427
v  -16.1603 -2.3242 5.1427
v  -12.2625 -2.2537 5.1427
v  -11.6475 -2.4518 5.1427
v  7.5399 -4.7562 5.1427
v  8.8433 -2.8285 5.1427
v  8.2463 -3.6251 5.1427
v  -5.1136 -7.0036 -0.0000
v  -8.9302 -7.0621 -0.2704
v  6.2167 -7.0822 -0.0000
v  15.5704 -6.4190 5.1427
v  15.5185 -6.4453 -0.0000
v  17.7128 -6.0732 2.4382
v  17.6960 -6.0923 -0.0000
v  18.0020 -6.0720 2.5540
v  17.9813 -6.0834 6.7862
v  17.7318 -6.1060 7.0002
v  12.3296 -2.7265 5.1427
v  -18.4447 -6.1330 4.2441
v  -18.5970 -6.7342 4.2441
v  -18.6027 -6.7372 -0.0000
v  -18.2616 -5.8739 -0.2704
v  -11.4293 -3.1445 5.1427
v  -16.8746 -3.2023 5.1427
v  10.6955 -3.4190 5.1427
v  9.8231 -2.7999 5.1427
v  8.9268 -3.5679 5.1427
v  8.5942 0.2900 -7.0277
v  -5.0084 0.4497 -6.9867
v  -2.2545 6.3558 -6.2598
v  8.8203 6.3959 -6.2791
v  -8.7389 0.4417 -6.9960
v  -5.2848 6.3440 -6.2624
v  -17.1915 -2.2567 -6.9098
v  -18.7322 -0.6322 -6.4629
v  -16.2010 -1.8433 -7.0959
v  -18.7742 -1.1718 -6.5087
v  -19.1997 -1.2722 -6.3969
v  -19.2400 -0.8711 -6.3275
v  -17.6163 -2.7914 -6.7727
v  -9.6129 -4.4219 -7.0613
v  -10.5293 -2.7624 -7.0156
v  -8.7397 0.1327 -7.0009
v  -12.0193 -1.7626 -7.0787
v  -11.1918 -2.0927 -7.0629
v  -4.8277 -4.2389 -7.0680
v  6.1781 -2.7895 -7.0266
v  6.8738 -4.6365 -7.1039
v  7.6235 -3.4311 -7.1690
v  16.0238 6.4693 -6.2734
v  17.4705 0.1858 -7.0545
v  8.3666 -2.4187 -7.1148
v  -4.8665 -6.4324 -7.1771
v  -8.7452 -6.4831 -7.0709
v  -9.2193 -6.0419 -7.6124
v  -9.0645 -6.4718 -7.8557
v  -9.4030 -6.5071 -7.9209
v  -9.5091 -6.0288 -7.6329
v  -10.8080 -3.0246 -7.9366
v  -10.1797 -4.0858 -7.9347
v  -10.4226 -4.2208 -7.9665
v  -11.0469 -3.1404 -7.9855
v  17.3598 -3.3527 -7.0956
v  17.4101 -4.6553 -7.0400
v  15.6842 -4.6463 -7.1027
v  15.0293 -3.5609 -7.1493
v  14.5201 -2.8842 -7.1156
v  13.9563 -2.2279 -7.0913
v  13.2664 -1.9141 -7.1192
v  17.4082 -5.2150 -7.5465
v  17.3716 -4.7606 -7.4840
v  17.6984 -4.7531 -7.4452
v  17.7127 -5.2080 -7.5238
v  13.1005 -2.1717 -7.9822
v  13.7323 -2.4280 -7.9552
v  13.5771 -2.6901 -8.0038
v  12.9884 -2.4474 -8.0269
v  15.4105 -5.2682 -7.6261
v  15.3383 -4.7569 -7.5507
v  17.4819 -6.1606 -7.0479
v  15.9484 -6.2847 -7.1339
v  15.0916 -4.7850 -7.5849
v  14.7236 -3.7236 -7.7561
v  14.4802 -3.8287 -7.7983
v  10.2318 -2.0535 -7.9677
v  10.3124 -2.3806 -7.9833
v  9.4735 -2.4640 -8.0263
v  9.3162 -2.1703 -7.9791
v  14.2470 -3.0190 -7.9056
v  14.0181 -3.1394 -7.9424
v  10.1886 -1.8040 -7.0824
v  9.1499 -1.9507 -7.1344
v  5.9028 -6.4831 -7.0472
v  6.2414 -6.5130 -7.8586
v  6.5607 -6.5124 -7.8795
v  6.2167 -7.0822 -7.9203
v  5.9376 -7.0309 -7.9000
v  -4.8084 -6.4772 -7.8119
v  -5.1136 -7.0036 -7.8510
v  -9.1085 -7.0621 -7.9212
v  6.3531 -6.1539 -7.6143
v  6.7113 -6.0848 -7.6200
v  -17.9762 -3.6394 -6.7831
v  -19.0132 -3.5350 -6.3797
v  -19.7582 -3.6143 -6.9248
v  -19.3639 -3.4355 -6.2600
v  -18.3287 -3.5673 -7.4037
v  -17.7143 -3.7311 -7.7300
v  -18.5002 -5.6288 -7.3879
v  -19.1413 -5.8711 -6.9799
v  -19.4695 -5.8883 -6.8167
v  -19.7582 -3.6055 -6.9248
v  -18.2689 -5.6288 -7.4663
v  -18.4565 -5.8128 -6.8808
v  -17.4477 -3.9067 -7.8456
v  -17.3304 -2.9994 -7.8122
v  -17.1122 -3.2048 -7.8734
v  -16.9892 -2.4631 -7.8462
v  -16.7774 -2.6306 -7.8960
v  -16.2599 -2.0407 -7.8287
v  -16.1603 -2.3242 -7.9155
v  -12.0787 -2.0044 -7.9542
v  -12.2625 -2.2537 -7.9888
v  -11.4305 -2.2625 -7.9475
v  -11.6475 -2.4518 -7.9935
v  7.1979 -4.6861 -7.7240
v  7.5399 -4.7562 -7.7928
v  7.9639 -3.4739 -7.8793
v  8.2463 -3.6251 -7.9150
v  8.6542 -2.5465 -7.9540
v  8.8433 -2.8285 -7.9950
v  -9.4030 -6.5071 -5.1427
v  -9.5091 -6.0288 -5.1427
v  -11.0469 -3.1404 -5.1427
v  -10.4226 -4.2208 -5.1427
v  12.9884 -2.4474 -5.1427
v  13.5771 -2.6901 -5.1427
v  15.4105 -5.2682 -5.1427
v  15.0916 -4.7850 -5.1427
v  14.4802 -3.8287 -5.1427
v  9.4735 -2.4640 -5.1427
v  10.3124 -2.3806 -5.1427
v  14.0181 -3.1394 -5.1427
v  6.2167 -7.0822 -5.1427
v  6.5607 -6.5124 -5.1427
v  -8.9302 -7.0621 -5.4131
v  -5.1136 -7.0036 -5.1427
v  6.7113 -6.0848 -5.1427
v  -18.4565 -5.7120 -5.1427
v  -17.4477 -3.9067 -5.1427
v  -17.1122 -3.2048 -5.1427
v  -16.7774 -2.6306 -5.1427
v  -16.1603 -2.3242 -5.1427
v  -12.2625 -2.2537 -5.1427
v  -11.6475 -2.4518 -5.1427
v  7.5399 -4.7562 -5.1427
v  8.8433 -2.8285 -5.1427
v  8.2463 -3.6251 -5.1427
v  15.5704 -6.4190 -5.1427
v  17.7128 -6.0732 -2.4382
v  17.9813 -6.0834 -6.7862
v  18.0020 -6.0720 -2.5540
v  17.7318 -6.1060 -7.0001
v  12.3296 -2.7265 -5.1427
v  -18.5970 -6.7342 -4.2441
v  -18.2664 -6.1330 -4.5145
v  -11.4293 -3.1445 -5.1427
v  -16.8746 -3.2023 -5.1427
v  10.6955 -3.4190 -5.1427
v  9.8231 -2.7999 -5.1427
v  8.9268 -3.5679 -5.1427
v  17.8401 -5.9960 -1.8012
v  17.8401 -4.9308 -1.8012
v  17.8401 -4.9308 1.8296
v  17.8401 -5.9960 1.8296
v  -7.7872 1.3044 6.8758
v  -7.4974 1.3520 7.6053
v  -7.4186 1.3659 7.4914
v  -7.7075 1.3320 6.8736
v  -6.8167 1.3476 7.5479
v  -6.8708 1.3510 6.8805
v  -7.5082 1.2338 7.5613
v  -7.7440 1.1790 6.9035
v  -6.6066 0.2483 7.0922
v  -6.5790 0.2323 6.9940
v  -6.4881 0.9335 6.9308
v  -6.5034 0.8917 7.1072
v  -6.8165 0.9005 7.1137
v  -6.7596 1.1836 7.1192
v  -6.7777 1.0728 7.3408
v  -7.3828 1.0629 7.4942
v  -7.3167 0.8951 7.1236
v  -6.9069 0.2245 7.0977
v  -7.1659 0.2344 7.1031
v  -7.4109 0.8733 6.9523
v  -7.6280 0.9666 6.9202
v  -7.2607 0.2183 6.9959
v  -6.7709 1.0918 7.6103
v  -7.4974 1.3520 -7.6052
v  -7.7872 1.3044 -6.8758
v  -7.7075 1.3320 -6.8736
v  -7.4186 1.3659 -7.4914
v  -6.8167 1.3476 -7.5479
v  -6.8708 1.3510 -6.8805
v  -7.5082 1.2338 -7.5613
v  -7.7440 1.1790 -6.9035
v  -6.5034 0.8917 -7.1072
v  -6.4881 0.9335 -6.9308
v  -6.5790 0.2323 -6.9939
v  -6.6066 0.2483 -7.0922
v  -6.8165 0.9005 -7.1137
v  -6.7596 1.1836 -7.1192
v  -7.3828 1.0629 -7.4942
v  -6.7777 1.0728 -7.3408
v  -7.3167 0.8951 -7.1236
v  -6.9069 0.2245 -7.0977
v  -7.1659 0.2344 -7.1031
v  -7.4109 0.8733 -6.9523
v  -7.6280 0.9666 -6.9201
v  -7.2607 0.2183 -6.9959
v  -6.7709 1.0918 -7.6102
v  -6.2374 2.3055 8.6929
v  -6.3208 2.4190 8.0364
v  -7.1175 2.1693 8.0780
v  -6.6490 2.1487 8.7575
v  -6.1287 2.1620 9.1047
v  -6.3509 2.1531 9.0321
v  -6.0323 2.3157 8.6961
v  -6.4809 2.4211 7.6960
v  -6.9386 2.3508 7.5914
v  -7.3086 2.1697 7.5521
v  -5.8601 2.1835 9.0619
v  -6.4847 2.2467 7.5429
v  -6.8992 2.2111 7.4916
v  -7.2065 2.1155 7.4731
v  -6.3208 2.4190 -8.0364
v  -6.2374 2.3055 -8.6928
v  -6.6490 2.1487 -8.7575
v  -7.1175 2.1693 -8.0779
v  -6.3509 2.1531 -9.0321
v  -6.1287 2.1620 -9.1047
v  -6.0323 2.3157 -8.6961
v  -6.9386 2.3508 -7.5913
v  -6.4809 2.4211 -7.6960
v  -7.3086 2.1697 -7.5521
v  -5.8601 2.1835 -9.0619
v  -6.8992 2.2111 -7.4916
v  -6.4847 2.2467 -7.5428
v  -7.2065 2.1155 -7.4731
v  -6.0730 1.8355 8.3898
v  -5.7676 1.8578 9.1417
v  -5.6948 1.4464 9.1365
v  -5.7034 1.3104 9.0496
v  -5.8889 1.2023 8.5431
v  -6.1811 1.1511 7.8104
v  -6.3888 1.6364 7.5730
v  -6.0730 1.8355 -8.3898
v  -5.7676 1.8578 -9.1417
v  -5.6948 1.4464 -9.1365
v  -5.7034 1.3104 -9.0497
v  -5.8889 1.2023 -8.5431
v  -6.1811 1.1511 -7.8104
v  -6.3888 1.6364 -7.5730
v  13.7323 -2.4369 7.9552
v  13.1005 -2.1806 7.9822
v  -16.9892 -2.4720 7.8462
v  -17.3304 -3.0082 7.8122
v  -17.7143 -3.7399 7.7300
v  -16.2599 -2.0495 7.8287
v  9.3162 -2.1791 7.9791
v  8.6542 -2.5554 7.9540
v  10.2318 -2.0624 7.9677
v  14.2470 -3.0278 7.9056
v  14.7236 -3.7325 7.7561
v  15.3383 -4.7658 7.5507
v  -4.8084 -6.4861 7.8120
v  6.2414 -6.5219 7.8586
v  -11.4305 -2.2713 7.9475
v  -10.8080 -3.0334 7.9366
v  -9.0645 -6.4806 7.8557
v  -9.2193 -6.0507 7.6124
v  -10.1797 -4.0946 7.9347
v  7.9639 -3.4827 7.8793
v  17.3716 -4.7695 7.4840
v  17.6984 -4.7620 7.4452
v  17.6923 -4.6584 7.0388
v  7.1979 -4.6950 7.7240
v  6.3531 -6.1628 7.6143
v  -12.0192 -1.7626 7.0787
v  -12.0787 -2.0133 7.9542
v  -18.3287 -3.5762 7.4037
v  13.7323 -2.4369 -7.9552
v  13.1005 -2.1806 -7.9822
v  -16.9892 -2.4720 -7.8462
v  -17.3304 -3.0082 -7.8122
v  -17.7143 -3.7399 -7.7300
v  -16.2599 -2.0495 -7.8287
v  9.3162 -2.1791 -7.9791
v  8.6542 -2.5554 -7.9540
v  10.2318 -2.0624 -7.9677
v  14.2470 -3.0278 -7.9056
v  14.7236 -3.7325 -7.7561
v  15.3383 -4.7658 -7.5507
v  -4.8084 -6.4861 -7.8119
v  6.2414 -6.5219 -7.8586
v  -10.8080 -3.0334 -7.9366
v  -11.4305 -2.2713 -7.9475
v  -9.0645 -6.4806 -7.8557
v  -9.2193 -6.0507 -7.6124
v  -10.1797 -4.0946 -7.9347
v  7.9639 -3.4827 -7.8793
v  17.3716 -4.7695 -7.4840
v  17.6923 -4.6584 -7.0388
v  17.6984 -4.7620 -7.4452
v  7.1979 -4.6950 -7.7240
v  6.3531 -6.1628 -7.6143
v  -12.0787 -2.0133 -7.9542
v  -12.0192 -1.7626 -7.0787
v  -18.3287 -3.5762 -7.4037
v  16.6482 6.0755 5.8061
v  17.9301 0.1889 6.6401
v  16.5515 6.8022 5.8144
v  16.6273 6.1634 -0.0000
v  16.5488 6.8065 -0.0000
v  18.3945 -4.7663 6.9822
v  18.4770 -4.7772 6.2449
v  18.2433 -3.3878 6.8029
v  18.2461 -3.3639 6.3512
v  17.9765 -3.2738 6.4059
v  17.9928 -3.3286 6.9360
v  17.6895 -4.7487 2.4693
v  18.0183 -4.2864 4.4187
v  17.9668 -4.2872 6.9201
v  17.8288 -3.1130 6.8235
v  18.2251 -4.2384 6.8229
v  18.2322 -4.2370 4.4439
v  18.2311 -3.3734 4.4591
v  17.9883 -3.3219 4.4075
v  17.9423 -4.3300 -0.0000
v  17.7180 -4.6844 -0.0000
v  18.4732 -5.1852 2.6910
v  18.4453 -4.8044 2.6675
v  18.5177 -5.2013 6.2451
v  18.0020 -6.0809 2.5540
v  17.7128 -6.0820 2.4382
v  18.0730 -5.2075 7.4342
v  17.7318 -6.1149 7.0002
v  17.9813 -6.0922 6.7862
v  18.4505 -5.2387 7.0154
v  17.7127 -5.2168 7.5238
v  17.4819 -6.1695 7.0479
v  18.0805 -4.7728 7.3701
v  17.9186 -3.1243 -0.0000
v  17.9532 0.1400 -0.0000
v  17.6960 -6.1011 -0.0000
v  16.6482 6.0755 -5.8061
v  17.9301 0.1889 -6.6401
v  16.5515 6.8022 -5.8144
v  18.3945 -4.7663 -6.9821
v  18.4770 -4.7772 -6.2449
v  18.2433 -3.3878 -6.8029
v  17.9928 -3.3286 -6.9360
v  17.9765 -3.2738 -6.4059
v  18.2461 -3.3639 -6.3511
v  17.9668 -4.2872 -6.9201
v  18.0183 -4.2864 -4.4187
v  17.6895 -4.7487 -2.4693
v  17.8288 -3.1130 -6.8235
v  18.2251 -4.2384 -6.8229
v  18.2311 -3.3734 -4.4591
v  18.2322 -4.2370 -4.4439
v  17.9883 -3.3219 -4.4075
v  18.4732 -5.1852 -2.6909
v  18.5177 -5.2013 -6.2451
v  18.4453 -4.8044 -2.6675
v  17.7128 -6.0820 -2.4382
v  18.0020 -6.0809 -2.5540
v  17.7318 -6.1149 -7.0001
v  18.0730 -5.2075 -7.4342
v  18.4505 -5.2387 -7.0154
v  17.9813 -6.0922 -6.7862
v  17.4819 -6.1695 -7.0479
v  17.7127 -5.2168 -7.5238
v  18.0805 -4.7728 -7.3701
v  8.6986 6.9131 5.7476
v  15.5858 6.9359 5.6675
v  -1.8556 6.8782 5.8702
v  -4.1913 6.7792 5.7946
v  -4.1963 6.7859 4.6425
v  -5.2873 6.3542 4.5030
v  -1.9498 7.0911 -0.0000
v  -4.2168 6.8129 -0.0000
v  15.3469 7.0523 -0.0000
v  -5.3128 6.3270 -0.0000
v  8.5111 7.0683 -0.0000
v  8.6986 6.9131 -5.7476
v  15.5858 6.9359 -5.6675
v  -4.1913 6.7792 -5.7946
v  -1.8556 6.8782 -5.8702
v  -4.1963 6.7859 -4.6425
v  -5.2873 6.3542 -4.5030
v  -7.2653 1.2949 8.0765
v  -6.7734 1.3223 8.7454
v  -6.3503 1.7860 9.1094
v  -6.3583 1.3431 9.0903
v  -5.8924 1.3661 9.2035
v  -6.0739 1.8145 9.1728
v  -6.3507 1.2228 8.9878
v  -5.9044 1.2493 9.0989
v  -7.1458 1.1174 7.9875
v  -6.7042 1.1798 8.6501
v  -6.7734 1.3223 -8.7454
v  -7.2653 1.2949 -8.0765
v  -6.3503 1.7860 -9.1093
v  -6.0739 1.8145 -9.1728
v  -5.8924 1.3661 -9.2035
v  -6.3583 1.3431 -9.0903
v  -6.3507 1.2228 -8.9878
v  -5.9044 1.2493 -9.0989
v  -7.1458 1.1174 -7.9874
v  -6.7042 1.1798 -8.6501
v  17.9693 0.6683 3.5883
v  18.0546 -0.3071 3.7464
v  20.3591 -0.1055 3.7464
v  20.2738 0.8699 3.5883
v  20.1997 1.7175 3.1480
v  17.8951 1.5159 3.1480
v  20.1412 2.3861 2.4768
v  17.8367 2.1845 2.4768
v  20.1028 2.8248 1.6260
v  17.7983 2.6232 1.6260
v  20.0890 2.9823 0.6469
v  17.7845 2.7807 0.6469
v  20.1028 2.8248 -0.3322
v  17.7983 2.6232 -0.3322
v  20.1412 2.3861 -1.1830
v  17.8367 2.1845 -1.1830
v  20.1997 1.7175 -1.8542
v  17.8951 1.5159 -1.8542
v  17.9693 0.6683 -2.2946
v  20.2738 0.8699 -2.2946
v  20.3591 -0.1055 -2.4527
v  18.0546 -0.3071 -2.4527
v  18.1400 -1.2825 -2.2946
v  20.4445 -1.0808 -2.2946
v  20.5186 -1.9284 -1.8542
v  18.2141 -2.1300 -1.8542
v  20.5771 -2.5970 -1.1830
v  18.2726 -2.7986 -1.1830
v  20.6155 -3.0357 -0.3322
v  18.3110 -3.2373 -0.3322
v  20.6293 -3.1932 0.6469
v  18.3248 -3.3949 0.6469
v  20.6155 -3.0357 1.6260
v  18.3110 -3.2373 1.6260
v  20.5771 -2.5970 2.4768
v  18.2726 -2.7986 2.4768
v  20.5186 -1.9284 3.1480
v  18.2141 -2.1300 3.1480
v  20.4445 -1.0808 3.5883
v  18.1400 -1.2825 3.5883
v  20.6064 0.7449 3.1232
v  20.6784 -0.0775 3.2565
v  20.6784 -0.0775 0.6469
v  20.7503 -0.8999 3.1232
v  20.8127 -1.6126 2.7529
v  20.8619 -2.1756 2.1878
v  20.8942 -2.5444 1.4724
v  20.9058 -2.6773 0.6469
v  20.8942 -2.5444 -0.1787
v  20.8619 -2.1756 -0.8941
v  20.8127 -1.6126 -1.4592
v  20.7503 -0.8999 -1.8294
v  20.6784 -0.0775 -1.9628
v  20.6064 0.7449 -1.8294
v  20.5441 1.4576 -1.4592
v  20.4948 2.0205 -0.8941
v  20.4625 2.3894 -0.1787
v  20.4509 2.5222 0.6469
v  20.4625 2.3894 1.4724
v  20.4948 2.0205 2.1878
v  20.5441 1.4576 2.7529
v  18.0546 -0.3071 0.6469
# 607 vertices

vn -0.0056 0.0737 0.9973
vn -0.0013 0.1217 0.9926
vn -0.0013 0.1227 0.9924
vn 0.0012 0.0692 0.9976
vn 0.0004 0.1231 0.9924
vn 0.0024 0.0581 0.9983
vn -0.2487 0.0304 0.9681
vn -0.0555 0.3689 0.9278
vn -0.2131 0.1423 0.9666
vn -0.1996 0.0576 0.9782
vn -0.3126 0.1312 0.9408
vn -0.2620 0.0362 0.9644
vn -0.1842 0.0285 0.9825
vn -0.0055 0.0108 0.9999
vn -0.0022 0.0251 0.9997
vn 0.0067 0.0010 1.0000
vn 0.0079 0.0274 0.9996
vn 0.0322 -0.0076 0.9995
vn -0.0023 0.0331 0.9994
vn -0.0294 0.0068 0.9995
vn -0.0250 0.0293 0.9993
vn -0.0737 0.0549 0.9958
vn 0.0018 0.0666 0.9978
vn -0.0005 0.1232 0.9924
vn 0.0116 0.0312 0.9994
vn -0.0273 -0.0068 0.9996
vn -0.0081 0.0498 0.9987
vn 0.0807 0.2953 0.9520
vn -0.7095 -0.1740 0.6829
vn -0.6299 -0.0043 0.7766
vn 0.0966 0.2440 0.9650
vn 0.1533 0.0984 0.9833
vn -0.4908 -0.3608 0.7930
vn -0.5306 -0.3662 0.7644
vn 0.1354 -0.0104 0.9907
vn 0.0243 -0.0139 0.9996
vn 0.0202 0.0317 0.9993
vn 0.0362 -0.0210 0.9991
vn 0.0361 -0.0412 0.9985
vn -0.0138 0.0331 0.9994
vn 0.0130 -0.0037 0.9999
vn -0.0004 0.0316 0.9995
vn 0.0604 -0.1679 0.9840
vn 0.0767 -0.1290 0.9887
vn 0.1121 0.1726 0.9786
vn 0.0716 0.1417 0.9873
vn 0.0524 0.1387 0.9889
vn -0.1185 -0.5767 0.8083
vn -0.2690 -0.5132 0.8150
vn 0.1350 0.1028 0.9855
vn 0.0974 0.0847 0.9916
vn -0.5205 -0.3730 0.7681
vn -0.2963 -0.8034 0.5165
vn 0.1597 -0.9172 0.3650
vn -0.5519 -0.4396 0.7086
vn 0.2010 -0.0731 0.9769
vn -0.4751 -0.4718 0.7428
vn 0.0021 0.0481 0.9988
vn -0.0584 0.1279 0.9901
vn 0.1887 -0.5443 0.8174
vn 0.0354 -0.6808 0.7317
vn 0.1716 -0.0251 0.9848
vn -0.4217 -0.4786 0.7701
vn 0.0057 0.0304 0.9995
vn -0.0048 0.0464 0.9989
vn 0.0119 -0.0369 0.9992
vn -0.0492 0.2535 0.9661
vn -0.0804 -0.6500 0.7557
vn 0.3110 -0.6959 0.6473
vn 0.6529 -0.0305 0.7568
vn -0.3926 -0.6569 0.6437
vn 0.0116 -0.6829 0.7305
vn 0.0008 0.0736 0.9973
vn -0.0930 0.4062 0.9090
vn 0.6874 -0.2682 0.6750
vn -0.2608 0.2650 0.9283
vn -0.3442 0.1574 0.9256
vn -0.1195 0.5625 0.8181
vn -0.2497 0.1639 0.9544
vn -0.4080 -0.0240 0.9127
vn -0.4081 -0.2104 0.8884
vn -0.4066 -0.2593 0.8761
vn -0.4018 0.0389 0.9149
vn -0.4390 -0.0978 0.8931
vn 0.6016 -0.7946 0.0815
vn 0.3659 -0.6370 0.6785
vn 0.4521 -0.3271 0.8298
vn 0.5279 -0.3130 0.7895
vn -0.2261 0.0497 0.9728
vn 0.3501 -0.4115 0.8415
vn -0.1408 0.1146 0.9834
vn -0.0793 0.2664 0.9606
vn 0.1049 -0.5077 0.8551
vn -0.1080 -0.5961 0.7956
vn 0.0228 0.1206 0.9924
vn -0.3121 -0.4568 0.8330
vn 0.1056 0.1185 0.9873
vn -0.1929 0.0217 0.9810
vn 0.5046 -0.4038 0.7631
vn -0.1332 -0.0148 0.9910
vn 0.5052 -0.4258 0.7506
vn 0.3493 -0.4834 0.8027
vn -0.1190 0.0644 0.9908
vn -0.6325 -0.2331 0.7387
vn -0.6903 -0.2466 0.6802
vn -0.5919 -0.4231 0.6860
vn -0.6274 -0.3394 0.7008
vn -0.1536 -0.7278 0.6683
vn -0.4175 -0.6197 0.6646
vn -0.7024 -0.2649 0.6606
vn -0.5916 -0.3843 0.7087
vn -0.5936 -0.3887 0.7047
vn 0.2297 -0.7129 0.6626
vn 0.0267 -0.7200 0.6934
vn -0.5636 -0.4589 0.6868
vn 0.2449 -0.9545 0.1700
vn 0.6173 -0.2912 0.7308
vn -0.2621 -0.9496 0.1717
vn 0.0039 -1.0000 -0.0000
vn 0.6580 -0.3164 0.6833
vn 0.8159 -0.4432 0.3713
vn 0.6215 -0.3218 0.7143
vn 0.6328 -0.3350 0.6980
vn 0.5203 -0.5564 0.6479
vn 0.1780 -0.7291 0.6609
vn -0.1083 -0.7326 0.6720
vn -0.4174 -0.6335 0.6515
vn 0.5999 -0.3744 0.7070
vn 0.4960 -0.5587 0.6647
vn 0.5910 -0.4049 0.6977
vn -0.0560 -0.9984 -0.0000
vn 0.0307 -0.9995 -0.0000
vn -0.1894 -0.9154 0.3553
vn 0.1140 -0.9935 -0.0000
vn 0.1136 -0.9928 -0.0369
vn 0.1601 -0.9871 -0.0000
vn 0.0051 -1.0000 -0.0027
vn 0.1265 -0.9918 0.0169
vn 0.1456 -0.9893 -0.0027
vn 0.0000 0.0000 1.0000
vn 0.6172 -0.7720 0.1519
vn 0.9693 -0.2455 0.0144
vn 0.9827 -0.1853 -0.0000
vn 0.5756 -0.8178 -0.0000
vn -0.0056 0.0737 -0.9973
vn 0.0012 0.0692 -0.9976
vn -0.0013 0.1227 -0.9924
vn -0.0013 0.1217 -0.9926
vn 0.0024 0.0581 -0.9983
vn 0.0004 0.1231 -0.9924
vn -0.2487 0.0304 -0.9681
vn -0.2131 0.1423 -0.9666
vn -0.0555 0.3689 -0.9278
vn -0.1996 0.0576 -0.9782
vn -0.2620 0.0362 -0.9644
vn -0.3126 0.1312 -0.9408
vn -0.1842 0.0285 -0.9825
vn -0.0055 0.0108 -0.9999
vn 0.0067 0.0010 -1.0000
vn -0.0022 0.0251 -0.9997
vn 0.0079 0.0274 -0.9996
vn 0.0322 -0.0076 -0.9995
vn -0.0023 0.0331 -0.9994
vn -0.0250 0.0293 -0.9993
vn -0.0294 0.0068 -0.9995
vn -0.0737 0.0549 -0.9958
vn -0.0005 0.1232 -0.9924
vn 0.0018 0.0666 -0.9978
vn 0.0116 0.0312 -0.9994
vn -0.0081 0.0498 -0.9987
vn -0.0273 -0.0068 -0.9996
vn 0.0807 0.2953 -0.9520
vn 0.0966 0.2440 -0.9650
vn -0.6299 -0.0043 -0.7766
vn -0.7095 -0.1740 -0.6829
vn 0.1533 0.0984 -0.9833
vn 0.1354 -0.0104 -0.9907
vn -0.5306 -0.3662 -0.7644
vn -0.4908 -0.3608 -0.7930
vn 0.0243 -0.0139 -0.9996
vn 0.0361 -0.0412 -0.9985
vn 0.0362 -0.0210 -0.9991
vn 0.0202 0.0317 -0.9993
vn -0.0138 0.0331 -0.9994
vn 0.0130 -0.0037 -0.9999
vn -0.0004 0.0316 -0.9995
vn 0.0604 -0.1679 -0.9840
vn 0.0716 0.1417 -0.9873
vn 0.1121 0.1726 -0.9786
vn 0.0767 -0.1290 -0.9887
vn 0.0524 0.1387 -0.9889
vn 0.1350 0.1028 -0.9855
vn -0.2690 -0.5132 -0.8150
vn -0.1185 -0.5767 -0.8083
vn -0.5205 -0.3730 -0.7681
vn 0.0974 0.0847 -0.9916
vn 0.1597 -0.9172 -0.3650
vn -0.2963 -0.8034 -0.5165
vn -0.5519 -0.4396 -0.7086
vn 0.2010 -0.0731 -0.9769
vn -0.4751 -0.4718 -0.7428
vn 0.0021 0.0481 -0.9988
vn 0.0354 -0.6808 -0.7317
vn 0.1887 -0.5443 -0.8174
vn -0.0584 0.1279 -0.9901
vn 0.1716 -0.0251 -0.9848
vn -0.4217 -0.4786 -0.7701
vn 0.0057 0.0304 -0.9995
vn -0.0048 0.0464 -0.9989
vn 0.0119 -0.0369 -0.9992
vn -0.0492 0.2535 -0.9661
vn 0.6529 -0.0305 -0.7568
vn 0.3110 -0.6959 -0.6473
vn -0.0804 -0.6500 -0.7557
vn 0.0008 0.0736 -0.9973
vn 0.0116 -0.6829 -0.7305
vn -0.3926 -0.6569 -0.6437
vn -0.0930 0.4062 -0.9090
vn 0.6874 -0.2682 -0.6750
vn -0.3442 0.1574 -0.9256
vn -0.2608 0.2650 -0.9283
vn -0.2497 0.1639 -0.9544
vn -0.1195 0.5625 -0.8181
vn -0.4080 -0.0240 -0.9127
vn -0.4018 0.0389 -0.9149
vn -0.4066 -0.2593 -0.8761
vn -0.4081 -0.2104 -0.8884
vn -0.4390 -0.0978 -0.8931
vn 0.3659 -0.6370 -0.6785
vn 0.6016 -0.7946 -0.0815
vn 0.4521 -0.3271 -0.8298
vn -0.2261 0.0497 -0.9728
vn 0.5279 -0.3130 -0.7895
vn -0.1408 0.1146 -0.9834
vn 0.3501 -0.4115 -0.8415
vn -0.0793 0.2664 -0.9606
vn 0.1049 -0.5077 -0.8551
vn 0.0228 0.1206 -0.9924
vn -0.1080 -0.5961 -0.7956
vn 0.1056 0.1185 -0.9873
vn -0.3121 -0.4568 -0.8330
vn -0.1929 0.0217 -0.9810
vn 0.5046 -0.4038 -0.7631
vn -0.1332 -0.0148 -0.9910
vn 0.5052 -0.4258 -0.7506
vn -0.1190 0.0644 -0.9908
vn 0.3493 -0.4834 -0.8027
vn -0.6325 -0.2331 -0.7387
vn -0.6903 -0.2466 -0.6802
vn -0.5919 -0.4231 -0.6860
vn -0.6274 -0.3394 -0.7008
vn -0.1536 -0.7278 -0.6683
vn -0.4175 -0.6197 -0.6646
vn -0.7024 -0.2649 -0.6606
vn -0.5916 -0.3843 -0.7087
vn -0.5936 -0.3887 -0.7047
vn 0.2297 -0.7129 -0.6626
vn 0.0267 -0.7200 -0.6934
vn -0.5636 -0.4589 -0.6868
vn 0.2449 -0.9545 -0.1700
vn 0.6173 -0.2912 -0.7308
vn -0.2621 -0.9496 -0.1717
vn 0.6580 -0.3164 -0.6833
vn 0.8159 -0.4432 -0.3713
vn 0.6215 -0.3218 -0.7143
vn 0.6328 -0.3350 -0.6980
vn 0.5203 -0.5564 -0.6479
vn 0.1780 -0.7291 -0.6609
vn -0.1083 -0.7326 -0.6720
vn -0.4174 -0.6335 -0.6515
vn 0.5999 -0.3744 -0.7070
vn 0.4960 -0.5587 -0.6647
vn 0.5910 -0.4049 -0.6977
vn -0.1894 -0.9154 -0.3553
vn 0.1136 -0.9928 0.0369
vn 0.1265 -0.9918 -0.0169
vn 0.0051 -1.0000 0.0027
vn 0.1456 -0.9893 0.0027
vn 0.0000 0.0000 -1.0000
vn 0.9693 -0.2455 -0.0144
vn 0.6172 -0.7720 -0.1519
vn 1.0000 0.0000 -0.0000
vn -0.8391 0.4511 0.3039
vn -0.7722 0.5755 0.2692
vn -0.0569 0.9980 -0.0281
vn -0.2170 0.9750 0.0479
vn 0.7365 0.6741 -0.0562
vn 0.4025 0.9150 0.0282
vn -0.8887 -0.3033 0.3438
vn -0.8817 -0.3240 0.3430
vn 0.5776 -0.1115 0.8087
vn 0.9539 -0.0982 0.2835
vn 0.9090 0.3810 0.1689
vn 0.7284 0.1518 0.6682
vn 0.1713 -0.2820 0.9440
vn 0.8314 0.4937 0.2551
vn 0.8733 -0.4451 0.1981
vn -0.3818 -0.8230 0.4205
vn -0.3732 -0.6907 0.6194
vn 0.0201 -0.0264 0.9994
vn -0.3520 -0.1092 0.9296
vn -0.6555 -0.6146 0.4388
vn -0.6814 -0.6165 0.3945
vn -0.7341 -0.1240 0.6676
vn 0.9914 0.1228 0.0458
vn -0.7722 0.5755 -0.2692
vn -0.8391 0.4511 -0.3039
vn -0.2170 0.9750 -0.0479
vn -0.0569 0.9980 0.0281
vn 0.7365 0.6741 0.0562
vn 0.4025 0.9150 -0.0282
vn -0.8887 -0.3033 -0.3438
vn -0.8817 -0.3240 -0.3430
vn 0.7284 0.1518 -0.6682
vn 0.9090 0.3810 -0.1689
vn 0.9539 -0.0982 -0.2835
vn 0.5776 -0.1115 -0.8087
vn 0.1713 -0.2820 -0.9440
vn 0.8314 0.4937 -0.2551
vn -0.3818 -0.8230 -0.4205
vn 0.8733 -0.4451 -0.1981
vn -0.3732 -0.6907 -0.6194
vn 0.0201 -0.0264 -0.9994
vn -0.3520 -0.1092 -0.9296
vn -0.6555 -0.6146 -0.4388
vn -0.6814 -0.6165 -0.3945
vn -0.7341 -0.1240 -0.6676
vn 0.9914 0.1228 -0.0458
vn -0.1815 0.9450 0.2720
vn -0.2652 0.9482 0.1747
vn -0.3248 0.9209 0.2157
vn -0.3069 0.9145 0.2638
vn -0.0740 0.9355 0.3455
vn -0.0538 0.9976 0.0425
vn -0.0523 0.9542 0.2945
vn -0.0916 0.9645 -0.2478
vn -0.2071 0.9102 -0.3586
vn -0.3894 0.8645 -0.3178
vn -0.0196 0.9373 0.3481
vn 0.0364 0.6588 -0.7514
vn -0.0361 0.5740 -0.8181
vn -0.1734 0.6932 -0.6996
vn -0.2652 0.9482 -0.1747
vn -0.1815 0.9450 -0.2720
vn -0.3069 0.9145 -0.2638
vn -0.3248 0.9209 -0.2157
vn -0.0538 0.9976 -0.0425
vn -0.0740 0.9355 -0.3455
vn -0.0523 0.9542 -0.2945
vn -0.2071 0.9102 0.3586
vn -0.0916 0.9645 0.2478
vn -0.3894 0.8645 0.3178
vn -0.0196 0.9373 -0.3481
vn -0.0361 0.5740 0.8181
vn 0.0364 0.6588 0.7514
vn -0.1734 0.6932 0.6996
vn 0.9024 0.1355 -0.4090
vn 0.9138 0.1605 -0.3731
vn 0.9108 0.1672 -0.3775
vn 0.9126 0.1646 -0.3743
vn 0.9118 0.1666 -0.3753
vn 0.9120 0.1732 -0.3718
vn 0.9120 0.1772 -0.3699
vn 0.9112 0.1747 -0.3731
vn 0.9035 0.1848 -0.3868
vn 0.9079 0.1560 -0.3891
vn 0.9159 0.1999 -0.3481
vn 0.9108 0.2219 -0.3481
vn 0.9024 0.1355 0.4090
vn 0.9108 0.1672 0.3775
vn 0.9138 0.1605 0.3731
vn 0.9126 0.1646 0.3743
vn 0.9118 0.1666 0.3753
vn 0.9120 0.1732 0.3718
vn 0.9120 0.1772 0.3699
vn 0.9112 0.1747 0.3731
vn 0.9035 0.1848 0.3868
vn 0.9079 0.1560 0.3891
vn 0.9159 0.1999 0.3481
vn 0.9108 0.2219 0.3481
vn 0.5484 0.7691 0.3282
vn 0.5736 0.7497 0.3300
vn 0.2345 0.9152 0.3277
vn 0.1914 0.9268 0.3230
vn -0.6622 0.6863 0.3009
vn -0.6433 0.7040 0.3009
vn -0.8306 0.4536 0.3230
vn -0.6255 0.7386 0.2514
vn -0.3434 0.9285 0.1415
vn -0.2799 0.9298 0.2391
vn -0.2125 0.9450 0.2488
vn -0.2917 0.9073 0.3028
vn -0.3220 0.8960 0.3057
vn -0.6413 0.6916 0.3324
vn -0.6190 0.7135 0.3283
vn -0.0385 0.9587 0.2817
vn -0.0454 0.9583 0.2820
vn 0.7598 0.5408 0.3609
vn 0.7206 0.5943 0.3571
vn 0.7728 0.3911 0.4999
vn 0.7186 0.4843 0.4990
vn 0.5527 0.5933 0.5852
vn 0.3057 0.8343 0.4587
vn 0.0025 0.9965 0.0840
vn -0.4456 0.8659 0.2273
vn -0.3900 0.8938 0.2213
vn -0.0055 0.9964 0.0848
vn 0.5488 0.7782 0.3053
vn 0.5517 0.7760 0.3056
vn 0.7597 0.5246 0.3843
vn 0.7403 0.5505 0.3860
vn 0.4873 0.8510 0.1955
vn 0.4083 0.8919 0.1945
vn 0.8247 0.3817 0.4173
vn 0.8320 0.3910 0.3935
vn 0.8200 0.4386 0.3678
vn -0.7623 0.5071 0.4022
vn -0.7691 0.4948 0.4045
vn 0.0088 0.9682 0.2499
vn 0.0129 0.9681 0.2502
vn 0.0070 0.9690 0.2469
vn 0.0118 0.9690 0.2468
vn -0.7834 0.4288 0.4499
vn -0.7844 0.4266 0.4502
vn -0.8040 0.4571 0.3803
vn 0.1779 0.9428 0.2820
vn 0.1733 0.9436 0.2819
vn -0.0515 0.9959 0.0745
vn 0.1152 0.9927 -0.0357
vn 0.0283 0.9829 0.1817
vn 0.5484 0.7691 -0.3282
vn 0.1914 0.9268 -0.3230
vn 0.2345 0.9152 -0.3277
vn 0.5736 0.7497 -0.3300
vn -0.6622 0.6863 -0.3009
vn -0.8306 0.4536 -0.3230
vn -0.6433 0.7040 -0.3009
vn -0.6255 0.7386 -0.2514
vn -0.3434 0.9285 -0.1415
vn -0.2125 0.9450 -0.2488
vn -0.2799 0.9298 -0.2391
vn -0.2917 0.9073 -0.3028
vn -0.6190 0.7135 -0.3283
vn -0.6413 0.6916 -0.3324
vn -0.3220 0.8960 -0.3057
vn -0.0454 0.9583 -0.2820
vn -0.0385 0.9587 -0.2817
vn 0.7206 0.5943 -0.3571
vn 0.7598 0.5408 -0.3609
vn 0.7186 0.4843 -0.4990
vn 0.7728 0.3911 -0.4999
vn 0.5527 0.5933 -0.5852
vn 0.3057 0.8343 -0.4587
vn 0.0025 0.9965 -0.0840
vn -0.0055 0.9964 -0.0848
vn -0.3900 0.8938 -0.2213
vn -0.4456 0.8659 -0.2273
vn 0.5488 0.7782 -0.3053
vn 0.7403 0.5505 -0.3860
vn 0.7597 0.5246 -0.3843
vn 0.5517 0.7760 -0.3056
vn 0.4873 0.8510 -0.1955
vn 0.8247 0.3817 -0.4173
vn 0.4083 0.8919 -0.1945
vn 0.8200 0.4386 -0.3678
vn 0.8320 0.3910 -0.3935
vn -0.7623 0.5071 -0.4022
vn -0.7691 0.4948 -0.4045
vn 0.0088 0.9682 -0.2499
vn 0.0129 0.9681 -0.2502
vn 0.0118 0.9690 -0.2468
vn 0.0070 0.9690 -0.2469
vn -0.7844 0.4266 -0.4502
vn -0.7834 0.4288 -0.4499
vn -0.8040 0.4571 -0.3803
vn 0.1733 0.9436 -0.2819
vn 0.1779 0.9428 -0.2820
vn 0.1152 0.9927 0.0357
vn -0.0515 0.9959 -0.0745
vn 0.0283 0.9829 -0.1817
vn 0.9027 0.1991 0.3814
vn 0.6551 0.1633 0.7377
vn 0.6647 0.1161 0.7381
vn 0.9038 0.1308 0.4075
vn 0.9181 0.1178 0.3784
vn 0.9858 0.1678 -0.0000
vn 0.9926 0.1212 -0.0000
vn 0.7047 0.6507 0.2828
vn 0.7349 0.6776 0.0289
vn 0.4732 0.5861 0.6577
vn 0.7596 0.4961 0.4205
vn 0.8158 0.5782 0.0097
vn 0.7854 0.6107 0.1011
vn 0.4743 0.4644 0.7479
vn 0.9510 -0.0845 -0.2974
vn 0.7828 -0.5767 -0.2337
vn 0.6056 -0.4395 0.6634
vn 0.7119 0.3107 0.6298
vn 0.7065 -0.5322 0.4665
vn 0.3223 0.0894 0.9424
vn 0.6651 -0.5001 -0.5546
vn 0.6837 0.5188 -0.5132
vn 0.9344 0.2582 -0.2454
vn 0.9624 -0.2715 -0.0000
vn 0.9568 -0.2906 -0.0000
vn 0.8265 -0.1535 -0.5416
vn 0.6364 0.5704 -0.5192
vn 0.9767 -0.2130 0.0260
vn 0.7026 -0.2689 -0.6588
vn 0.8291 0.0275 -0.5584
vn 0.4983 -0.1919 0.8455
vn 0.4112 -0.5145 0.7524
vn 0.7698 -0.5315 0.3534
vn 0.8963 -0.2022 0.3947
vn 0.2420 -0.1788 0.9537
vn 0.2647 -0.4815 0.8355
vn 0.0040 -0.0425 0.9991
vn 0.1638 0.6536 0.7389
vn 0.4296 0.6055 0.6700
vn 1.0000 0.0041 -0.0000
vn 0.9948 0.1023 -0.0000
vn 0.9999 -0.0155 -0.0000
vn 0.9027 0.1991 -0.3814
vn 0.9038 0.1308 -0.4075
vn 0.6647 0.1161 -0.7381
vn 0.6551 0.1633 -0.7377
vn 0.9181 0.1178 -0.3784
vn 0.7047 0.6507 -0.2828
vn 0.4732 0.5861 -0.6577
vn 0.7349 0.6776 -0.0289
vn 0.7596 0.4961 -0.4205
vn 0.4743 0.4644 -0.7479
vn 0.7854 0.6107 -0.1011
vn 0.8158 0.5782 -0.0097
vn 0.6056 -0.4395 -0.6634
vn 0.7828 -0.5767 0.2337
vn 0.9510 -0.0845 0.2974
vn 0.7119 0.3107 -0.6298
vn 0.7065 -0.5322 -0.4665
vn 0.3223 0.0894 -0.9424
vn 0.6837 0.5188 0.5132
vn 0.6651 -0.5001 0.5546
vn 0.9344 0.2582 0.2454
vn 0.8265 -0.1535 0.5416
vn 0.9767 -0.2130 -0.0260
vn 0.6364 0.5704 0.5192
vn 0.8291 0.0275 0.5584
vn 0.7026 -0.2689 0.6588
vn 0.4112 -0.5145 -0.7524
vn 0.4983 -0.1919 -0.8455
vn 0.8963 -0.2022 -0.3947
vn 0.7698 -0.5315 -0.3534
vn 0.2647 -0.4815 -0.8355
vn 0.2420 -0.1788 -0.9537
vn 0.0040 -0.0425 -0.9991
vn 0.1638 0.6536 -0.7389
vn 0.4296 0.6055 -0.6700
vn 0.0015 0.9215 0.3884
vn -0.0054 0.7161 0.6979
vn 0.0070 0.7948 0.6069
vn 0.0438 0.9498 0.3098
vn -0.0023 0.5989 0.8008
vn -0.0219 0.8865 0.4621
vn -0.1593 0.9468 0.2797
vn -0.2746 0.9343 0.2273
vn 0.0924 0.9596 0.2657
vn -0.2085 0.9780 0.0066
vn -0.3680 0.9298 0.0008
vn -0.0605 0.9982 -0.0000
vn -0.2667 0.9638 -0.0000
vn 0.2004 0.9797 -0.0000
vn 0.0991 0.9951 -0.0000
vn -0.4053 0.9142 -0.0000
vn 0.0023 1.0000 -0.0000
vn -0.0054 0.7161 -0.6979
vn 0.0015 0.9215 -0.3884
vn 0.0438 0.9498 -0.3098
vn 0.0070 0.7948 -0.6069
vn -0.0023 0.5989 -0.8008
vn -0.2746 0.9343 -0.2273
vn -0.1593 0.9468 -0.2797
vn -0.0219 0.8865 -0.4621
vn 0.0924 0.9596 -0.2657
vn -0.2085 0.9780 -0.0066
vn -0.3680 0.9298 -0.0008
vn -0.8758 0.1473 0.4597
vn -0.8130 -0.2665 0.5177
vn -0.6989 -0.2905 0.6536
vn -0.7458 0.1026 0.6582
vn -0.9467 0.2023 -0.2508
vn -0.9757 0.1018 0.1942
vn -0.4769 0.0876 0.8746
vn -0.5112 0.1762 0.8412
vn -0.4025 -0.3354 0.8518
vn 0.1397 -0.3304 0.9334
vn -0.0871 0.1034 0.9908
vn 0.3880 -0.2051 0.8986
vn 0.0826 0.1247 0.9887
vn -0.1051 0.1752 0.9789
vn 0.1303 0.2708 0.9538
vn -0.2192 -0.8553 0.4695
vn 0.0661 -0.9924 0.1033
vn 0.3625 -0.7776 0.5138
vn 0.1442 -0.9550 0.2594
vn -0.3521 -0.8905 0.2882
vn -0.3569 -0.8942 0.2704
vn 0.0340 -0.9970 0.0697
vn 0.1395 -0.9551 -0.2614
vn -0.3120 -0.8832 0.3501
vn -0.7924 -0.4372 0.4253
vn -0.5086 0.1231 -0.8521
vn -0.2219 0.0391 -0.9743
vn 0.1040 -0.0548 -0.9931
vn 0.1369 -0.1195 -0.9834
vn 0.1251 -0.0293 -0.9917
vn 0.1642 -0.1587 -0.9736
vn 0.2075 -0.9172 -0.3400
vn -0.6989 -0.2905 -0.6536
vn -0.8130 -0.2665 -0.5177
vn -0.8758 0.1473 -0.4597
vn -0.7458 0.1026 -0.6582
vn -0.9467 0.2023 0.2508
vn -0.9757 0.1018 -0.1942
vn -0.4769 0.0876 -0.8746
vn -0.5112 0.1762 -0.8412
vn -0.0871 0.1034 -0.9908
vn 0.1397 -0.3304 -0.9334
vn -0.4025 -0.3354 -0.8518
vn 0.3880 -0.2051 -0.8986
vn 0.0826 0.1247 -0.9887
vn -0.1051 0.1752 -0.9789
vn 0.1303 0.2708 -0.9538
vn 0.3625 -0.7776 -0.5138
vn 0.0661 -0.9924 -0.1033
vn -0.2192 -0.8553 -0.4695
vn 0.1442 -0.9550 -0.2594
vn 0.0340 -0.9970 -0.0697
vn -0.3569 -0.8942 -0.2704
vn -0.3521 -0.8905 -0.2882
vn 0.1395 -0.9551 0.2614
vn -0.3120 -0.8832 -0.3501
vn -0.7924 -0.4372 -0.4253
vn -0.5086 0.1231 0.8521
vn -0.2219 0.0391 0.9743
vn 0.1369 -0.1195 0.9834
vn 0.1040 -0.0548 0.9931
vn 0.1642 -0.1587 0.9736
vn 0.1251 -0.0293 0.9917
vn 0.2075 -0.9172 0.3400
vn -0.6909 0.1722 0.7022
vn -0.6704 -0.0586 0.7397
vn 0.4548 0.0398 0.8897
vn 0.4307 0.3176 0.8448
vn 0.4096 0.5629 0.7179
vn -0.7097 0.3755 0.5961
vn 0.3928 0.7550 0.5250
vn -0.7236 0.5351 0.4360
vn 0.3813 0.8814 0.2789
vn -0.7318 0.6408 0.2318
vn 0.3773 0.9261 -0.0000
vn -0.7348 0.6783 -0.0000
vn 0.3813 0.8814 -0.2789
vn -0.7318 0.6408 -0.2318
vn 0.3928 0.7550 -0.5251
vn -0.7236 0.5351 -0.4360
vn 0.4096 0.5629 -0.7179
vn -0.7097 0.3755 -0.5961
vn -0.6909 0.1722 -0.7022
vn 0.4307 0.3176 -0.8448
vn 0.4548 0.0398 -0.8897
vn -0.6704 -0.0586 -0.7397
vn -0.6504 -0.2896 -0.7022
vn 0.4793 -0.2380 -0.8448
vn 0.5011 -0.4832 -0.7179
vn -0.6336 -0.4931 -0.5961
vn 0.5179 -0.6753 -0.5251
vn -0.6197 -0.6526 -0.4360
vn 0.5286 -0.8018 -0.2789
vn -0.6094 -0.7582 -0.2318
vn 0.5324 -0.8465 -0.0000
vn -0.6059 -0.7956 -0.0000
vn 0.5286 -0.8017 0.2789
vn -0.6095 -0.7582 0.2318
vn 0.5180 -0.6753 0.5251
vn -0.6197 -0.6526 0.4360
vn 0.5011 -0.4832 0.7179
vn -0.6337 -0.4931 0.5961
vn 0.4793 -0.2380 0.8448
vn -0.6504 -0.2896 0.7022
vn 0.9381 0.1802 0.2960
vn 0.9465 0.0828 0.3119
vn 0.9962 0.0872 -0.0000
vn 0.9551 -0.0145 0.2960
vn 0.9628 -0.1001 0.2511
vn 0.9686 -0.1673 0.1837
vn 0.9724 -0.2120 0.0977
vn 0.9737 -0.2279 -0.0000
vn 0.9724 -0.2120 -0.0977
vn 0.9686 -0.1673 -0.1837
vn 0.9628 -0.1001 -0.2511
vn 0.9551 -0.0145 -0.2960
vn 0.9465 0.0828 -0.3119
vn 0.9381 0.1802 -0.2960
vn 0.9308 0.2658 -0.2511
vn 0.9249 0.3330 -0.1837
vn 0.9208 0.3777 -0.0977
vn 0.9193 0.3935 -0.0000
vn 0.9208 0.3777 0.0977
vn 0.9249 0.3330 0.1837
vn 0.9308 0.2658 0.2511
vn -0.9962 -0.0872 -0.0000
# 711 vertex normals

vt 0.7011 0.8265 0.0000
vt 0.7064 0.9696 0.0000
vt 0.4470 0.9687 0.0000
vt 0.3825 0.8303 0.0000
vt 0.3760 0.9684 0.0000
vt 0.2951 0.8301 0.0000
vt 0.0972 0.7668 0.0000
vt 0.1204 0.7765 0.0000
vt 0.0611 0.8049 0.0000
vt 0.0601 0.7923 0.0000
vt 0.0492 0.7993 0.0000
vt 0.0501 0.7899 0.0000
vt 0.0872 0.7543 0.0000
vt 0.2747 0.7161 0.0000
vt 0.2951 0.8228 0.0000
vt 0.2532 0.7550 0.0000
vt 0.2183 0.7784 0.0000
vt 0.2377 0.7707 0.0000
vt 0.3867 0.7204 0.0000
vt 0.6608 0.7111 0.0000
vt 0.6445 0.7543 0.0000
vt 0.6783 0.7393 0.0000
vt 0.9089 0.8241 0.0000
vt 0.8751 0.9713 0.0000
vt 0.6957 0.7630 0.0000
vt 0.2950 0.6678 0.0000
vt 0.3858 0.6690 0.0000
vt 0.2839 0.6779 0.0000
vt 0.2771 0.6782 0.0000
vt 0.2796 0.6670 0.0000
vt 0.2875 0.6678 0.0000
vt 0.2467 0.7486 0.0000
vt 0.2411 0.7459 0.0000
vt 0.2557 0.7206 0.0000
vt 0.2614 0.7238 0.0000
vt 0.9063 0.7411 0.0000
vt 0.8518 0.7363 0.0000
vt 0.8671 0.7108 0.0000
vt 0.9075 0.7106 0.0000
vt 0.8398 0.7521 0.0000
vt 0.8266 0.7675 0.0000
vt 0.8105 0.7749 0.0000
vt 0.9075 0.6973 0.0000
vt 0.9146 0.6975 0.0000
vt 0.9143 0.7081 0.0000
vt 0.9066 0.7079 0.0000
vt 0.8066 0.7686 0.0000
vt 0.8040 0.7622 0.0000
vt 0.8178 0.7565 0.0000
vt 0.8214 0.7626 0.0000
vt 0.8590 0.7080 0.0000
vt 0.8607 0.6960 0.0000
vt 0.8733 0.6722 0.0000
vt 0.9092 0.6751 0.0000
vt 0.8532 0.7074 0.0000
vt 0.8446 0.7322 0.0000
vt 0.8389 0.7298 0.0000
vt 0.7394 0.7714 0.0000
vt 0.7180 0.7686 0.0000
vt 0.7217 0.7618 0.0000
vt 0.7413 0.7637 0.0000
vt 0.8334 0.7488 0.0000
vt 0.8281 0.7459 0.0000
vt 0.7384 0.7774 0.0000
vt 0.7141 0.7740 0.0000
vt 0.6380 0.6678 0.0000
vt 0.6460 0.6669 0.0000
vt 0.6388 0.6547 0.0000
vt 0.6454 0.6535 0.0000
vt 0.6534 0.6669 0.0000
vt 0.2865 0.6540 0.0000
vt 0.3800 0.6554 0.0000
vt 0.3872 0.6677 0.0000
vt 0.6486 0.6753 0.0000
vt 0.6570 0.6769 0.0000
vt 0.0545 0.7369 0.0000
vt 0.0788 0.7344 0.0000
vt 0.0463 0.7392 0.0000
vt 0.0371 0.7350 0.0000
vt 0.0705 0.7359 0.0000
vt 0.0515 0.6819 0.0000
vt 0.0665 0.6876 0.0000
vt 0.0849 0.7321 0.0000
vt 0.0438 0.6815 0.0000
vt 0.0675 0.6833 0.0000
vt 0.0719 0.6876 0.0000
vt 0.0912 0.7280 0.0000
vt 0.0990 0.7444 0.0000
vt 0.0939 0.7492 0.0000
vt 0.1069 0.7579 0.0000
vt 0.1019 0.7618 0.0000
vt 0.1190 0.7717 0.0000
vt 0.1213 0.7650 0.0000
vt 0.2126 0.7667 0.0000
vt 0.2169 0.7725 0.0000
vt 0.2270 0.7621 0.0000
vt 0.2321 0.7665 0.0000
vt 0.6684 0.7097 0.0000
vt 0.6764 0.7080 0.0000
vt 0.6863 0.7381 0.0000
vt 0.6929 0.7346 0.0000
vt 0.7069 0.7532 0.0000
vt 0.7025 0.7598 0.0000
vt 0.0675 0.6856 0.0000
vt 0.8644 0.6691 0.0000
vt 0.8632 0.6685 0.0000
vt 0.9146 0.6772 0.0000
vt 0.9142 0.6767 0.0000
vt 0.9214 0.6772 0.0000
vt 0.9209 0.6769 0.0000
vt 0.9151 0.6764 0.0000
vt 0.7885 0.7556 0.0000
vt 0.0678 0.6758 0.0000
vt 0.0643 0.6617 0.0000
vt 0.0641 0.6616 0.0000
vt 0.0679 0.6818 0.0000
vt 0.2321 0.7458 0.0000
vt 0.1046 0.7445 0.0000
vt 0.7503 0.7394 0.0000
vt 0.7298 0.7539 0.0000
vt 0.7088 0.7359 0.0000
vt 0.6224 0.3874 0.0000
vt 0.6224 0.4321 0.0000
vt 0.4789 0.4321 0.0000
vt 0.4789 0.3874 0.0000
vt 0.9038 0.2773 0.0000
vt 0.9156 0.2780 0.0000
vt 0.9137 0.2783 0.0000
vt 0.9038 0.2777 0.0000
vt 0.9147 0.2780 0.0000
vt 0.9039 0.2780 0.0000
vt 0.9149 0.2761 0.0000
vt 0.9043 0.2752 0.0000
vt 0.9073 0.2602 0.0000
vt 0.9057 0.2599 0.0000
vt 0.9047 0.2713 0.0000
vt 0.9075 0.2706 0.0000
vt 0.9077 0.2707 0.0000
vt 0.9077 0.2753 0.0000
vt 0.9113 0.2735 0.0000
vt 0.9138 0.2734 0.0000
vt 0.9078 0.2706 0.0000
vt 0.9074 0.2598 0.0000
vt 0.9075 0.2599 0.0000
vt 0.9051 0.2703 0.0000
vt 0.9045 0.2718 0.0000
vt 0.9058 0.2597 0.0000
vt 0.9157 0.2738 0.0000
vt 0.9468 0.2086 0.0000
vt 0.9434 0.2329 0.0000
vt 0.9102 0.2313 0.0000
vt 0.9297 0.2062 0.0000
vt 0.9513 0.1934 0.0000
vt 0.9421 0.1961 0.0000
vt 0.9554 0.2085 0.0000
vt 0.9357 0.2475 0.0000
vt 0.9167 0.2513 0.0000
vt 0.9013 0.2528 0.0000
vt 0.9625 0.1950 0.0000
vt 0.9356 0.2531 0.0000
vt 0.9183 0.2550 0.0000
vt 0.9055 0.2557 0.0000
vt 0.7508 0.7449 0.0000
vt 0.7795 0.7404 0.0000
vt 0.7661 0.7194 0.0000
vt 0.7954 0.7346 0.0000
vt 0.7989 0.7204 0.0000
vt 0.7987 0.7024 0.0000
vt 0.7949 0.6964 0.0000
vt 0.7728 0.6917 0.0000
vt 0.7409 0.6894 0.0000
vt 0.7306 0.7107 0.0000
vt 0.7293 0.7374 0.0000
vt 0.7359 0.7450 0.0000
vt 0.8180 0.4393 0.0000
vt 0.8231 0.4537 0.0000
vt 0.8076 0.4537 0.0000
vt 0.8039 0.4388 0.0000
vt 0.1314 0.4399 0.0000
vt 0.1269 0.4533 0.0000
vt 0.1158 0.4561 0.0000
vt 0.1234 0.4418 0.0000
vt 0.1161 0.4443 0.0000
vt 0.1079 0.4582 0.0000
vt 0.1466 0.4405 0.0000
vt 0.1479 0.4527 0.0000
vt 0.7206 0.4381 0.0000
vt 0.7168 0.4536 0.0000
vt 0.6993 0.4536 0.0000
vt 0.7057 0.4393 0.0000
vt 0.7411 0.4383 0.0000
vt 0.7402 0.4536 0.0000
vt 0.8296 0.4401 0.0000
vt 0.8357 0.4537 0.0000
vt 0.8403 0.4427 0.0000
vt 0.8471 0.4537 0.0000
vt 0.8541 0.4501 0.0000
vt 0.8618 0.4537 0.0000
vt 0.4036 0.4474 0.0000
vt 0.6516 0.4472 0.0000
vt 0.6440 0.4533 0.0000
vt 0.4023 0.4527 0.0000
vt 0.2604 0.4522 0.0000
vt 0.2550 0.4394 0.0000
vt 0.2690 0.4396 0.0000
vt 0.2752 0.4522 0.0000
vt 0.3124 0.4476 0.0000
vt 0.3153 0.4522 0.0000
vt 0.3074 0.4492 0.0000
vt 0.2958 0.4522 0.0000
vt 0.2818 0.4408 0.0000
vt 0.6826 0.4536 0.0000
vt 0.6876 0.4439 0.0000
vt 0.9013 0.4523 0.0000
vt 0.9022 0.4551 0.0000
vt 0.9087 0.4530 0.0000
vt 0.9085 0.4551 0.0000
vt 0.6699 0.4484 0.0000
vt 0.6658 0.4536 0.0000
vt 0.6541 0.4514 0.0000
vt 0.2418 0.4522 0.0000
vt 0.2405 0.4393 0.0000
vt 0.0755 0.4614 0.0000
vt 0.1063 0.4527 0.0000
vt 0.0840 0.4666 0.0000
vt 0.0776 0.3801 0.0000
vt 0.0662 0.3909 0.0000
vt 0.0442 0.2183 0.0000
vt 0.0541 0.2184 0.0000
vt 0.0774 0.4001 0.0000
vt 0.2415 0.3825 0.0000
vt 0.2415 0.4002 0.0000
vt 0.0444 0.0822 0.0000
vt 0.0652 0.0819 0.0000
vt 0.0428 0.0852 0.0000
vt 0.0495 0.1201 0.0000
vt 0.0622 0.1207 0.0000
vt 0.0607 0.1232 0.0000
vt 0.0457 0.1217 0.0000
vt 0.1718 0.0827 0.0000
vt 0.1168 0.0954 0.0000
vt 0.0462 0.0954 0.0000
vt 0.0489 0.1276 0.0000
vt 0.0489 0.0967 0.0000
vt 0.0433 0.1210 0.0000
vt 0.1161 0.0967 0.0000
vt 0.1156 0.1205 0.0000
vt 0.1171 0.1219 0.0000
vt 0.2415 0.0942 0.0000
vt 0.2415 0.0844 0.0000
vt 0.1656 0.0707 0.0000
vt 0.1662 0.0811 0.0000
vt 0.0652 0.0702 0.0000
vt 0.1694 0.0461 0.0000
vt 0.1727 0.0460 0.0000
vt 0.0316 0.0701 0.0000
vt 0.0439 0.0451 0.0000
vt 0.0499 0.0458 0.0000
vt 0.0435 0.0692 0.0000
vt 0.0291 0.0698 0.0000
vt 0.0425 0.0436 0.0000
vt 0.0313 0.0823 0.0000
vt 0.0334 0.0820 0.0000
vt 0.2415 0.1273 0.0000
vt 0.2415 0.2170 0.0000
vt 0.2415 0.0455 0.0000
vt 0.7270 0.4806 0.0000
vt 0.7299 0.4675 0.0000
vt 0.9050 0.4676 0.0000
vt 0.8944 0.4826 0.0000
vt 0.4607 0.4680 0.0000
vt 0.4704 0.4776 0.0000
vt 0.4136 0.4795 0.0000
vt 0.3871 0.4679 0.0000
vt 0.9178 0.4790 0.0000
vt 0.4135 0.5080 0.0000
vt 0.3870 0.5114 0.0000
vt 0.4681 0.6227 0.0000
vt 0.4130 0.6227 0.0000
vt 0.9178 0.6227 0.0000
vt 0.8886 0.6227 0.0000
vt 0.3864 0.6227 0.0000
vt 0.7224 0.6227 0.0000
vt 0.9051 0.4228 0.0000
vt 0.9050 0.3846 0.0000
vt 0.9341 0.3858 0.0000
vt 0.9347 0.4219 0.0000
vt 0.8822 0.4228 0.0000
vt 0.8845 0.3871 0.0000
vt 0.9500 0.4061 0.0000
vt 0.9466 0.4221 0.0000
vt 0.9491 0.3867 0.0000
vt 0.9541 0.3877 0.0000
vt 0.9527 0.4073 0.0000
vt 0.9512 0.3912 0.0000
vt 0.9514 0.4092 0.0000
vt 0.9498 0.4225 0.0000
vt 0.9479 0.4235 0.0000
vt 0.9447 0.3814 0.0000
vt 0.9253 0.3805 0.0000
vt 0.9474 0.3852 0.0000
vt 0.9495 0.3826 0.0000
vt 0.9011 0.3768 0.0000
vt 0.8796 0.3744 0.0000
vt 0.8730 0.3748 0.0000
vt 0.8847 0.3757 0.0000
vt 0.9300 0.3795 0.0000
vt 0.8826 0.3819 0.0000
vt 0.8795 0.3877 0.0000
vt 0.8787 0.4205 0.0000
vt 0.8795 0.4247 0.0000
vt 0.8820 0.3869 0.0000
vt 0.8818 0.4262 0.0000
vt 0.8831 0.3995 0.0000
vt 0.8934 0.3783 0.0000
vt 0.8693 0.8426 -0.2500
vt 0.8609 0.8426 -0.2500
vt 0.8609 0.8309 0.2500
vt 0.8693 0.8309 -0.2500
vt 0.8775 0.8309 -0.2500
vt 0.8775 0.8426 -0.2500
vt 0.8855 0.8309 -0.2500
vt 0.8855 0.8426 -0.2500
vt 0.7209 0.8309 -0.2500
vt 0.7291 0.8309 -0.2500
vt 0.7291 0.8426 -0.2500
vt 0.7209 0.8426 -0.2500
vt 0.7375 0.8309 -0.2500
vt 0.7375 0.8426 -0.2500
vt 0.7459 0.8309 -0.2500
vt 0.7459 0.8426 -0.2500
vt 0.7540 0.8309 -0.2500
vt 0.7540 0.8426 -0.2500
vt 0.7621 0.8309 -0.2500
vt 0.7621 0.8426 -0.2500
vt 0.7702 0.8426 -0.2500
vt 0.7702 0.8309 -0.2500
vt 0.7786 0.8309 0.2500
vt 0.7786 0.8426 -0.2500
vt 0.7870 0.8426 -0.2500
vt 0.7870 0.8309 -0.2500
vt 0.7952 0.8309 -0.2500
vt 0.7952 0.8426 -0.2500
vt 0.8032 0.8309 -0.2500
vt 0.8032 0.8426 -0.2500
vt 0.8114 0.8309 -0.2500
vt 0.8114 0.8426 -0.2500
vt 0.8198 0.8309 -0.2500
vt 0.8198 0.8426 -0.2500
vt 0.8282 0.8309 -0.2500
vt 0.8282 0.8426 -0.2500
vt 0.8363 0.8309 -0.2500
vt 0.8363 0.8426 -0.2500
vt 0.8444 0.8309 -0.2500
vt 0.8444 0.8426 -0.2500
vt 0.8525 0.8309 -0.2500
vt 0.8525 0.8426 -0.2500
vt 0.1940 0.9387 0.5000
vt 0.1973 0.9184 0.5000
vt 0.1333 0.9184 0.5000
vt 0.1940 0.8982 0.5000
vt 0.1849 0.8807 0.5000
vt 0.1711 0.8668 0.5000
vt 0.1535 0.8577 0.5000
vt 0.1333 0.8545 0.5000
vt 0.1131 0.8577 0.5000
vt 0.0955 0.8668 0.5000
vt 0.0817 0.8807 0.5000
vt 0.0726 0.8982 0.5000
vt 0.0693 0.9184 0.5000
vt 0.0726 0.9387 0.5000
vt 0.0817 0.9562 0.5000
vt 0.0955 0.9701 0.5000
vt 0.1131 0.9792 0.5000
vt 0.1333 0.9824 0.5000
vt 0.1535 0.9792 0.5000
vt 0.1711 0.9701 0.5000
vt 0.1849 0.9562 0.5000
vt 0.2093 0.9184 1.5000
vt 0.2054 0.9425 1.5000
vt 0.1333 0.9184 1.5000
vt 0.1946 0.9633 1.5000
vt 0.1782 0.9798 1.5000
vt 0.1573 0.9906 1.5000
vt 0.1333 0.9944 1.5000
vt 0.1093 0.9906 1.5000
vt 0.0884 0.9798 1.5000
vt 0.0720 0.9633 1.5000
vt 0.0612 0.9425 1.5000
vt 0.0573 0.9184 1.5000
vt 0.0612 0.8944 1.5000
vt 0.0720 0.8736 1.5000
vt 0.0884 0.8571 1.5000
vt 0.1093 0.8463 1.5000
vt 0.1333 0.8424 1.5000
vt 0.1573 0.8463 1.5000
vt 0.1782 0.8571 1.5000
vt 0.1946 0.8736 1.5000
vt 0.2054 0.8944 1.5000
vt 0.2054 0.9425 0.5000
vt 0.2093 0.9184 0.5000
vt 0.2054 0.8944 0.5000
vt 0.1946 0.8736 0.5000
vt 0.1782 0.8571 0.5000
vt 0.1573 0.8463 0.5000
vt 0.1333 0.8424 0.5000
vt 0.1093 0.8463 0.5000
vt 0.0884 0.8571 0.5000
vt 0.0720 0.8736 0.5000
vt 0.0612 0.8944 0.5000
vt 0.0573 0.9184 0.5000
vt 0.0612 0.9425 0.5000
vt 0.0720 0.9633 0.5000
vt 0.0884 0.9798 0.5000
vt 0.1093 0.9906 0.5000
vt 0.1333 0.9944 0.5000
vt 0.1573 0.9906 0.5000
vt 0.1782 0.9798 0.5000
vt 0.1946 0.9633 0.5000
# 419 texture coords

o s_0008
g s_0008
usemtl Mercedes_G_Class_Standard00FF80
s 2
f 1/1/1 2/2/2 3/3/3 
f 3/3/3 4/4/4 1/1/1 
f 4/4/4 3/3/3 5/5/5 
f 5/5/5 6/6/6 4/4/4 
f 7/7/7 8/8/8 9/9/9 
f 10/10/10 9/9/9 11/11/11 
f 11/11/11 12/12/12 10/10/10 
f 7/7/7 9/9/9 10/10/10 
f 10/10/10 13/13/13 7/7/7 
f 14/14/14 15/15/15 16/16/16 
f 9/9/9 8/8/8 17/17/17 
f 17/17/17 15/15/15 9/9/9 
f 16/16/16 15/15/15 18/18/18 
f 19/19/19 20/20/20 21/21/21 
f 21/21/21 4/4/4 19/19/19 
f 15/15/15 4/4/4 6/6/6 
f 20/20/20 22/22/22 21/21/21 
f 1/1/1 4/4/4 21/21/21 
f 1/1/1 23/23/23 24/24/24 
f 24/24/24 2/2/2 1/1/1 
f 21/21/21 22/22/22 25/25/25 
f 25/25/25 1/1/1 21/21/21 
f 15/15/15 14/14/14 19/19/19 
f 19/19/19 4/4/4 15/15/15 
f 19/19/19 14/14/14 26/26/26 
f 26/26/26 27/27/27 19/19/19 
f 28/28/28 29/29/29 30/30/30 
f 30/30/30 31/31/31 28/28/28 
s 8
f 32/32/32 33/33/33 34/34/34 
f 34/34/34 35/35/35 32/32/32 
s 2
f 18/18/18 15/15/15 17/17/17 
f 36/36/36 37/37/37 38/38/38 
f 38/38/38 39/39/39 36/36/36 
f 40/40/40 37/37/37 36/36/36 
f 36/36/36 23/23/23 40/40/40 
f 40/40/40 23/23/23 41/41/41 
f 41/41/41 23/23/23 42/42/42 
s 8
f 43/43/43 44/44/44 45/45/45 
f 45/45/45 46/46/46 43/43/43 
f 47/47/47 48/48/48 49/49/49 
f 49/49/49 50/50/50 47/47/47 
f 46/46/46 51/51/51 52/52/52 
f 52/52/52 43/43/43 46/46/46 
s 2
f 43/43/43 52/52/52 53/53/53 
f 53/53/53 54/54/54 43/43/43 
f 43/43/43 54/54/54 44/44/44 
s 8
f 55/55/55 52/52/52 51/51/51 
f 56/56/56 57/57/57 55/55/55 
f 55/55/55 51/51/51 56/56/56 
f 58/58/58 59/59/59 60/60/60 
f 60/60/60 61/61/61 58/58/58 
f 62/62/62 50/50/50 49/49/49 
f 49/49/49 63/63/63 62/62/62 
s 2
f 1/1/1 64/64/64 42/42/42 
f 42/42/42 23/23/23 1/1/1 
f 64/64/64 1/1/1 65/65/65 
f 65/65/65 1/1/1 25/25/25 
f 19/19/19 27/27/27 66/66/66 
f 66/66/66 20/20/20 19/19/19 
f 67/67/67 68/68/68 69/69/69 
f 69/69/69 70/70/70 67/67/67 
s 8
f 61/61/61 48/48/48 47/47/47 
f 47/47/47 58/58/58 61/61/61 
s 2
f 31/31/31 71/71/71 72/72/72 
f 72/72/72 73/73/73 31/31/31 
f 74/74/74 67/67/67 70/70/70 
f 70/70/70 75/75/75 74/74/74 
f 73/73/73 72/72/72 68/68/68 
f 68/68/68 67/67/67 73/73/73 
f 30/30/30 71/71/71 31/31/31 
f 13/13/13 10/10/10 76/76/76 
f 76/76/76 77/77/77 13/13/13 
s 4
f 76/76/76 78/78/78 79/79/79 
s 8
f 80/80/80 81/81/81 82/82/82 
f 82/82/82 83/83/83 80/80/80 
f 35/35/35 34/34/34 29/29/29 
f 29/29/29 28/28/28 35/35/35 
f 81/81/81 80/80/80 84/79/79 
f 84/79/79 85/84/84 81/81/81 
s 2
f 76/76/76 10/10/10 12/12/12 
f 12/12/12 78/78/78 76/76/76 
s 1
f 82/82/82 81/81/81 86/85/85 
f 86/85/85 87/86/86 82/82/82 
s 8
f 83/83/83 82/82/82 87/86/86 
f 87/86/86 88/87/87 83/83/83 
f 83/83/83 88/87/87 89/88/88 
f 89/88/88 90/89/89 83/83/83 
f 90/89/89 89/88/88 91/90/90 
f 91/90/90 92/91/91 90/89/89 
f 93/92/92 92/91/91 91/90/90 
f 91/90/90 94/93/93 93/92/92 
f 93/92/92 94/93/93 95/94/94 
f 95/94/94 96/95/95 93/92/92 
f 96/95/95 95/94/94 97/96/96 
f 97/96/96 98/97/97 96/95/95 
f 98/97/97 97/96/96 33/33/33 
f 33/33/33 32/32/32 98/97/97 
f 99/98/98 74/74/74 75/75/75 
f 75/75/75 100/99/99 99/98/98 
f 101/100/100 99/98/98 100/99/99 
f 100/99/99 102/101/101 101/100/100 
f 101/100/100 102/101/101 103/102/102 
f 103/102/102 104/103/103 101/100/100 
f 59/59/59 104/103/103 103/102/102 
f 103/102/102 60/60/60 59/59/59 
f 62/62/62 63/63/63 57/57/57 
f 57/57/57 56/56/56 62/62/62 
s off
f 105/30/104 30/30/30 29/29/29 
f 29/29/29 106/29/105 105/30/104 
f 107/33/106 108/34/107 34/34/34 
f 34/34/34 33/33/33 107/33/106 
f 109/48/108 110/49/109 49/49/49 
f 49/49/49 48/48/48 109/48/108 
f 111/52/110 52/52/52 55/55/55 
f 55/55/55 112/55/111 111/52/110 
f 113/57/112 112/55/111 55/55/55 
f 55/55/55 57/57/57 113/57/112 
f 114/60/113 115/61/114 61/61/61 
f 61/61/61 60/60/60 114/60/113 
f 110/49/109 116/63/115 63/63/63 
f 63/63/63 49/49/49 110/49/109 
f 117/69/116 118/70/117 70/70/70 
f 70/70/70 69/69/69 117/69/116 
f 69/69/69 68/68/68 117/69/116 
f 109/48/108 48/48/48 61/61/61 
f 61/61/61 115/61/114 109/48/108 
f 119/71/118 120/72/119 72/72/72 
f 72/72/72 71/71/71 119/71/118 
f 118/70/117 121/75/120 75/75/75 
f 75/75/75 70/70/70 118/70/117 
f 120/72/119 117/69/116 68/68/68 
f 68/68/68 72/72/72 120/72/119 
f 119/71/118 71/71/71 30/30/30 
f 30/30/30 105/30/104 119/71/118 
f 108/34/107 106/29/105 29/29/29 
f 29/29/29 34/34/34 108/34/107 
f 87/86/86 86/85/85 122/104/121 
f 123/87/122 88/87/87 87/86/86 
f 87/86/86 122/104/121 123/87/122 
f 124/88/123 89/88/88 88/87/87 
f 88/87/87 123/87/122 124/88/123 
f 125/90/124 91/90/90 89/88/88 
f 89/88/88 124/88/123 125/90/124 
f 126/93/125 94/93/93 91/90/90 
f 91/90/90 125/90/124 126/93/125 
f 127/94/126 95/94/94 94/93/93 
f 94/93/93 126/93/125 127/94/126 
f 128/96/127 97/96/96 95/94/94 
f 95/94/94 127/94/126 128/96/127 
f 107/33/106 33/33/33 97/96/96 
f 97/96/96 128/96/127 107/33/106 
f 129/99/128 100/99/99 75/75/75 
f 75/75/75 121/75/120 129/99/128 
f 130/102/129 103/102/102 102/101/101 
f 102/101/101 131/101/130 130/102/129 
f 114/60/113 60/60/60 103/102/102 
f 103/102/102 130/102/129 114/60/113 
f 116/63/115 113/57/112 57/57/57 
f 57/57/57 63/63/63 116/63/115 
f 132/72/119 120/72/119 119/71/118 
f 119/71/118 133/71/131 132/72/119 
f 134/69/132 117/69/116 120/72/119 
f 120/72/119 132/72/119 134/69/132 
f 135/105/133 117/69/116 134/69/132 
f 134/69/132 136/106/134 135/105/133 
f 53/53/53 52/52/52 111/52/110 
f 111/52/110 135/105/133 53/53/53 
f 137/107/135 135/105/133 136/106/134 
f 136/106/134 138/108/136 137/107/135 
f 135/105/133 137/107/135 139/109/137 
f 139/109/137 140/110/138 135/105/133 
f 135/105/133 141/111/139 54/54/54 
f 54/54/54 53/53/53 135/105/133 
f 135/105/133 140/110/138 141/111/139 
f 109/48/108 142/112/140 110/49/109 
f 143/113/141 144/114/142 145/115/143 
f 145/115/143 146/116/144 143/113/141 
f 119/71/118 122/104/121 143/113/141 
f 122/104/121 86/85/85 144/114/142 
f 144/114/142 143/113/141 122/104/121 
f 106/29/105 123/87/122 105/30/104 
f 119/71/118 105/30/104 123/87/122 
f 123/87/122 122/104/121 119/71/118 
f 106/29/105 108/34/107 123/87/122 
f 108/34/107 107/33/106 147/117/140 
f 147/117/140 107/33/106 128/96/127 
f 128/96/127 127/94/126 147/117/140 
f 148/118/140 147/117/140 127/94/126 
f 127/94/126 126/93/125 148/118/140 
f 123/87/122 108/34/107 147/117/140 
f 147/117/140 148/118/140 123/87/122 
f 148/118/140 126/93/125 125/90/124 
f 125/90/124 124/88/123 148/118/140 
f 148/118/140 124/88/123 123/87/122 
f 135/105/133 111/52/110 118/70/117 
f 118/70/117 117/69/116 135/105/133 
f 112/55/111 121/75/120 118/70/117 
f 118/70/117 111/52/110 112/55/111 
f 112/55/111 113/57/112 129/99/128 
f 129/99/128 121/75/120 112/55/111 
f 149/119/140 129/99/128 113/57/112 
f 113/57/112 116/63/115 149/119/140 
f 142/112/140 149/119/140 116/63/115 
f 116/63/115 110/49/109 142/112/140 
f 142/112/140 109/48/108 115/61/114 
f 115/61/114 150/120/140 142/112/140 
f 149/119/140 142/112/140 150/120/140 
f 150/120/140 151/121/140 149/119/140 
f 149/119/140 151/121/140 129/99/128 
f 150/120/140 115/61/114 114/60/113 
f 114/60/113 130/102/129 150/120/140 
f 151/121/140 150/120/140 130/102/129 
f 130/102/129 131/101/130 151/121/140 
f 151/121/140 131/101/130 129/99/128 
f 100/99/99 129/99/128 131/101/130 
f 131/101/130 102/101/101 100/99/99 
f 143/113/141 146/116/144 133/71/131 
f 133/71/131 119/71/118 143/113/141 
s 2
f 152/1/145 153/4/146 154/3/147 
f 154/3/147 155/2/148 152/1/145 
f 153/4/146 156/6/149 157/5/150 
f 157/5/150 154/3/147 153/4/146 
f 158/7/151 159/9/152 160/8/153 
f 161/10/154 162/12/155 163/11/156 
f 163/11/156 159/9/152 161/10/154 
f 158/7/151 164/13/157 161/10/154 
f 161/10/154 159/9/152 158/7/151 
f 165/14/158 166/16/159 167/15/160 
f 159/9/152 167/15/160 168/17/161 
f 168/17/161 160/8/153 159/9/152 
f 166/16/159 169/18/162 167/15/160 
f 170/19/163 153/4/146 171/21/164 
f 171/21/164 172/20/165 170/19/163 
f 167/15/160 156/6/149 153/4/146 
f 172/20/165 171/21/164 173/22/166 
f 152/1/145 171/21/164 153/4/146 
f 152/1/145 155/2/148 174/24/167 
f 174/24/167 175/23/168 152/1/145 
f 171/21/164 152/1/145 176/25/169 
f 176/25/169 173/22/166 171/21/164 
f 167/15/160 153/4/146 170/19/163 
f 170/19/163 165/14/158 167/15/160 
f 170/19/163 177/27/170 178/26/171 
f 178/26/171 165/14/158 170/19/163 
f 179/28/172 180/31/173 181/30/174 
f 181/30/174 182/29/175 179/28/172 
s 8
f 183/32/176 184/35/177 185/34/178 
f 185/34/178 186/33/179 183/32/176 
s 2
f 169/18/162 168/17/161 167/15/160 
f 187/36/180 188/39/181 189/38/182 
f 189/38/182 190/37/183 187/36/180 
f 191/40/184 175/23/168 187/36/180 
f 187/36/180 190/37/183 191/40/184 
f 191/40/184 192/41/185 175/23/168 
f 192/41/185 193/42/186 175/23/168 
s 8
f 194/43/187 195/46/188 196/45/189 
f 196/45/189 197/44/190 194/43/187 
f 198/47/191 199/50/192 200/49/193 
f 200/49/193 201/48/194 198/47/191 
f 195/46/188 194/43/187 202/52/195 
f 202/52/195 203/51/196 195/46/188 
s 2
f 194/43/187 204/54/197 205/53/198 
f 205/53/198 202/52/195 194/43/187 
f 194/43/187 197/44/190 204/54/197 
s 8
f 206/55/199 203/51/196 202/52/195 
f 207/56/200 203/51/196 206/55/199 
f 206/55/199 208/57/201 207/56/200 
f 209/58/202 210/61/203 211/60/204 
f 211/60/204 212/59/205 209/58/202 
f 213/62/206 214/63/207 200/49/193 
f 200/49/193 199/50/192 213/62/206 
s 2
f 152/1/145 175/23/168 193/42/186 
f 193/42/186 215/64/208 152/1/145 
f 215/64/208 216/65/209 152/1/145 
f 216/65/209 176/25/169 152/1/145 
f 170/19/163 172/20/165 217/66/210 
f 217/66/210 177/27/170 170/19/163 
f 218/67/211 219/70/212 220/69/213 
f 220/69/213 221/68/214 218/67/211 
s 8
f 198/47/191 201/48/194 210/61/203 
f 210/61/203 209/58/202 198/47/191 
s 2
f 180/31/173 222/73/215 223/72/216 
f 223/72/216 224/71/217 180/31/173 
f 225/74/218 226/75/219 219/70/212 
f 219/70/212 218/67/211 225/74/218 
f 222/73/215 218/67/211 221/68/214 
f 221/68/214 223/72/216 222/73/215 
f 181/30/174 180/31/173 224/71/217 
f 164/13/157 227/77/220 228/76/221 
f 228/76/221 161/10/154 164/13/157 
s 4
f 228/76/221 229/79/222 230/78/223 
s 8
f 231/80/224 232/83/225 233/82/226 
f 233/82/226 234/81/227 231/80/224 
f 184/35/177 179/28/172 182/29/175 
f 182/29/175 185/34/178 184/35/177 
f 234/81/227 235/84/228 236/79/222 
f 236/79/222 231/80/224 234/81/227 
s 2
f 228/76/221 230/78/223 162/12/155 
f 162/12/155 161/10/154 228/76/221 
s 1
f 233/82/226 237/86/229 238/85/230 
f 238/85/230 234/81/227 233/82/226 
s 8
f 232/83/225 239/87/231 237/86/229 
f 237/86/229 233/82/226 232/83/225 
f 232/83/225 240/89/232 241/88/233 
f 241/88/233 239/87/231 232/83/225 
f 240/89/232 242/91/234 243/90/235 
f 243/90/235 241/88/233 240/89/232 
f 244/92/236 245/93/237 243/90/235 
f 243/90/235 242/91/234 244/92/236 
f 244/92/236 246/95/238 247/94/239 
f 247/94/239 245/93/237 244/92/236 
f 246/95/238 248/97/240 249/96/241 
f 249/96/241 247/94/239 246/95/238 
f 248/97/240 183/32/176 186/33/179 
f 186/33/179 249/96/241 248/97/240 
f 250/98/242 251/99/243 226/75/219 
f 226/75/219 225/74/218 250/98/242 
f 252/100/244 253/101/245 251/99/243 
f 251/99/243 250/98/242 252/100/244 
f 252/100/244 254/103/246 255/102/247 
f 255/102/247 253/101/245 252/100/244 
f 212/59/205 211/60/204 255/102/247 
f 255/102/247 254/103/246 212/59/205 
f 213/62/206 207/56/200 208/57/201 
f 208/57/201 214/63/207 213/62/206 
s off
f 182/29/175 181/30/174 256/30/248 
f 256/30/248 257/29/249 182/29/175 
f 258/33/250 186/33/179 185/34/178 
f 185/34/178 259/34/251 258/33/250 
f 260/48/252 201/48/194 200/49/193 
f 200/49/193 261/49/253 260/48/252 
f 206/55/199 202/52/195 262/52/254 
f 262/52/254 263/55/255 206/55/199 
f 264/57/256 208/57/201 206/55/199 
f 206/55/199 263/55/255 264/57/256 
f 265/60/257 211/60/204 210/61/203 
f 210/61/203 266/61/258 265/60/257 
f 261/49/253 200/49/193 214/63/207 
f 214/63/207 267/63/259 261/49/253 
f 268/69/260 220/69/213 219/70/212 
f 219/70/212 269/70/261 268/69/260 
f 220/69/213 268/69/260 221/68/214 
f 210/61/203 201/48/194 260/48/252 
f 260/48/252 266/61/258 210/61/203 
f 270/71/262 224/71/217 223/72/216 
f 223/72/216 271/72/119 270/71/262 
f 269/70/261 219/70/212 226/75/219 
f 226/75/219 272/75/263 269/70/261 
f 271/72/119 223/72/216 221/68/214 
f 221/68/214 268/69/260 271/72/119 
f 181/30/174 224/71/217 270/71/262 
f 270/71/262 256/30/248 181/30/174 
f 259/34/251 185/34/178 182/29/175 
f 182/29/175 257/29/249 259/34/251 
f 237/86/229 273/104/264 238/85/230 
f 237/86/229 239/87/231 274/87/265 
f 274/87/265 273/104/264 237/86/229 
f 239/87/231 241/88/233 275/88/266 
f 275/88/266 274/87/265 239/87/231 
f 241/88/233 243/90/235 276/90/267 
f 276/90/267 275/88/266 241/88/233 
f 243/90/235 245/93/237 277/93/268 
f 277/93/268 276/90/267 243/90/235 
f 245/93/237 247/94/239 278/94/269 
f 278/94/269 277/93/268 245/93/237 
f 247/94/239 249/96/241 279/96/270 
f 279/96/270 278/94/269 247/94/239 
f 249/96/241 186/33/179 258/33/250 
f 258/33/250 279/96/270 249/96/241 
f 226/75/219 251/99/243 280/99/271 
f 280/99/271 272/75/263 226/75/219 
f 253/101/245 255/102/247 281/102/272 
f 281/102/272 282/101/273 253/101/245 
f 255/102/247 211/60/204 265/60/257 
f 265/60/257 281/102/272 255/102/247 
f 267/63/259 214/63/207 208/57/201 
f 208/57/201 264/57/256 267/63/259 
f 270/71/262 271/72/119 132/72/119 
f 132/72/119 133/71/131 270/71/262 
f 271/72/119 268/69/260 134/69/132 
f 134/69/132 132/72/119 271/72/119 
f 134/69/132 268/69/260 283/105/274 
f 283/105/274 136/106/134 134/69/132 
f 262/52/254 202/52/195 205/53/198 
f 205/53/198 283/105/274 262/52/254 
f 136/106/134 283/105/274 284/107/275 
f 284/107/275 138/108/136 136/106/134 
f 283/105/274 285/110/276 286/109/277 
f 286/109/277 284/107/275 283/105/274 
f 283/105/274 204/54/197 287/111/278 
f 204/54/197 283/105/274 205/53/198 
f 283/105/274 287/111/278 285/110/276 
f 260/48/252 261/49/253 288/112/279 
f 145/115/143 289/114/280 290/113/281 
f 290/113/281 146/116/144 145/115/143 
f 270/71/262 290/113/281 273/104/264 
f 289/114/280 238/85/230 273/104/264 
f 273/104/264 290/113/281 289/114/280 
f 257/29/249 256/30/248 274/87/265 
f 270/71/262 273/104/264 274/87/265 
f 274/87/265 256/30/248 270/71/262 
f 257/29/249 274/87/265 259/34/251 
f 259/34/251 291/117/279 258/33/250 
f 279/96/270 258/33/250 291/117/279 
f 291/117/279 278/94/269 279/96/270 
f 292/118/279 277/93/268 278/94/269 
f 278/94/269 291/117/279 292/118/279 
f 274/87/265 292/118/279 291/117/279 
f 291/117/279 259/34/251 274/87/265 
f 276/90/267 277/93/268 292/118/279 
f 292/118/279 275/88/266 276/90/267 
f 292/118/279 274/87/265 275/88/266 
f 283/105/274 268/69/260 269/70/261 
f 269/70/261 262/52/254 283/105/274 
f 269/70/261 272/75/263 263/55/255 
f 263/55/255 262/52/254 269/70/261 
f 263/55/255 272/75/263 280/99/271 
f 280/99/271 264/57/256 263/55/255 
f 264/57/256 280/99/271 293/119/279 
f 293/119/279 267/63/259 264/57/256 
f 267/63/259 293/119/279 288/112/279 
f 288/112/279 261/49/253 267/63/259 
f 266/61/258 260/48/252 288/112/279 
f 288/112/279 294/120/279 266/61/258 
f 294/120/279 288/112/279 293/119/279 
f 293/119/279 295/121/279 294/120/279 
f 293/119/279 280/99/271 295/121/279 
f 265/60/257 266/61/258 294/120/279 
f 294/120/279 281/102/272 265/60/257 
f 281/102/272 294/120/279 295/121/279 
f 295/121/279 282/101/273 281/102/272 
f 295/121/279 280/99/271 282/101/273 
f 282/101/273 280/99/271 251/99/243 
f 251/99/243 253/101/245 282/101/273 
f 290/113/281 270/71/262 133/71/131 
f 133/71/131 146/116/144 290/113/281 
s 1
f 296/122/282 297/123/282 298/124/282 
f 298/124/282 299/125/282 296/122/282 
f 300/126/283 301/127/284 302/128/285 
f 302/128/285 303/129/286 300/126/283 
f 302/128/285 304/130/287 305/131/288 
f 305/131/288 303/129/286 302/128/285 
f 306/132/289 301/127/284 300/126/283 
f 300/126/283 307/133/290 306/132/289 
f 308/134/291 309/135/292 310/136/293 
f 310/136/293 311/137/294 308/134/291 
f 312/138/295 311/137/294 313/139/296 
f 312/138/295 314/140/297 315/141/298 
f 315/141/298 316/142/299 312/138/295 
f 314/140/297 312/138/295 313/139/296 
f 312/138/295 317/143/300 308/134/291 
f 308/134/291 311/137/294 312/138/295 
f 310/136/293 305/131/288 313/139/296 
f 313/139/296 311/137/294 310/136/293 
f 316/142/299 318/144/301 317/143/300 
f 317/143/300 312/138/295 316/142/299 
f 319/145/302 316/142/299 315/141/298 
f 315/141/298 320/146/303 319/145/302 
f 307/133/290 320/146/303 315/141/298 
f 315/141/298 306/132/289 307/133/290 
f 319/145/302 321/147/304 318/144/301 
f 318/144/301 316/142/299 319/145/302 
f 322/148/305 314/140/297 313/139/296 
f 313/139/296 305/131/288 304/130/287 
f 304/130/287 322/148/305 313/139/296 
f 323/127/306 324/126/307 325/129/308 
f 325/129/308 326/128/309 323/127/306 
f 327/130/310 326/128/309 325/129/308 
f 325/129/308 328/131/311 327/130/310 
f 324/126/307 323/127/306 329/132/312 
f 329/132/312 330/133/313 324/126/307 
f 331/137/314 332/136/315 333/135/316 
f 333/135/316 334/134/317 331/137/314 
f 335/138/318 336/139/319 331/137/314 
f 337/141/320 338/140/321 335/138/318 
f 335/138/318 339/142/322 337/141/320 
f 338/140/321 336/139/319 335/138/318 
f 335/138/318 331/137/314 334/134/317 
f 334/134/317 340/143/323 335/138/318 
f 331/137/314 336/139/319 328/131/311 
f 328/131/311 332/136/315 331/137/314 
f 339/142/322 335/138/318 340/143/323 
f 340/143/323 341/144/324 339/142/322 
f 339/142/322 342/145/325 343/146/326 
f 343/146/326 337/141/320 339/142/322 
f 343/146/326 330/133/313 329/132/312 
f 329/132/312 337/141/320 343/146/326 
f 339/142/322 341/144/324 344/147/327 
f 344/147/327 342/145/325 339/142/322 
f 345/148/328 336/139/319 338/140/321 
f 345/148/328 327/130/310 328/131/311 
f 328/131/311 336/139/319 345/148/328 
f 346/149/329 347/150/330 348/151/331 
f 348/151/331 349/152/332 346/149/329 
f 350/153/333 346/149/329 349/152/332 
f 349/152/332 351/154/334 350/153/333 
f 352/155/335 347/150/330 346/149/329 
f 348/151/331 347/150/330 353/156/336 
f 353/156/336 354/157/337 348/151/331 
f 355/158/338 348/151/331 354/157/337 
f 352/155/335 346/149/329 350/153/333 
f 350/153/333 356/159/339 352/155/335 
f 357/160/340 358/161/341 354/157/337 
f 354/157/337 353/156/336 357/160/340 
f 359/162/342 355/158/338 354/157/337 
f 354/157/337 358/161/341 359/162/342 
f 360/150/343 361/149/344 362/152/345 
f 362/152/345 363/151/346 360/150/343 
f 364/154/347 362/152/345 361/149/344 
f 361/149/344 365/153/348 364/154/347 
f 366/155/349 361/149/344 360/150/343 
f 363/151/346 367/157/350 368/156/351 
f 368/156/351 360/150/343 363/151/346 
f 369/158/352 367/157/350 363/151/346 
f 370/159/353 365/153/348 361/149/344 
f 361/149/344 366/155/349 370/159/353 
f 367/157/350 371/161/354 372/160/355 
f 372/160/355 368/156/351 367/157/350 
f 373/162/356 371/161/354 367/157/350 
f 367/157/350 369/158/352 373/162/356 
s off
f 347/163/357 352/164/358 374/165/359 
f 352/164/358 356/166/360 374/165/359 
f 356/166/360 375/167/361 374/165/359 
f 375/167/361 376/168/362 374/165/359 
f 376/168/362 377/169/363 374/165/359 
f 377/169/363 378/170/364 374/165/359 
f 378/170/364 379/171/365 374/165/359 
f 379/171/365 380/172/366 374/165/359 
f 380/172/366 357/173/367 374/165/359 
f 357/173/367 353/174/368 374/165/359 
f 353/174/368 347/163/357 374/165/359 
f 360/163/369 381/165/370 366/164/371 
f 366/164/371 381/165/370 370/166/372 
f 370/166/372 381/165/370 382/167/373 
f 382/167/373 381/165/370 383/168/374 
f 383/168/374 381/165/370 384/169/375 
f 384/169/375 381/165/370 385/170/376 
f 385/170/376 381/165/370 386/171/377 
f 386/171/377 381/165/370 387/172/378 
f 387/172/378 381/165/370 372/173/379 
f 372/173/379 381/165/370 368/174/380 
f 368/174/380 381/165/370 360/163/369 
s 1
f 388/175/381 41/176/382 42/177/383 
f 42/177/383 389/178/384 388/175/381 
f 390/179/385 7/180/386 13/181/387 
f 13/181/387 391/182/387 390/179/385 
f 392/183/388 391/182/387 13/181/387 
f 13/181/387 77/184/389 392/183/388 
s 4
f 390/179/385 393/185/390 8/186/391 
f 8/186/391 7/180/386 390/179/385 
s 1
f 394/187/392 65/188/393 25/189/394 
f 25/189/394 395/190/395 394/187/392 
f 394/187/392 396/191/396 64/192/397 
f 64/192/397 65/188/393 394/187/392 
f 64/192/397 396/191/396 389/178/384 
f 389/178/384 42/177/383 64/192/397 
f 397/193/398 40/194/399 41/176/382 
f 41/176/382 388/175/381 397/193/398 
f 397/193/398 398/195/400 37/196/401 
f 37/196/401 40/194/399 397/193/398 
f 37/196/401 398/195/400 399/197/402 
f 399/197/402 38/198/403 37/196/401 
s 8
f 400/199/404 401/200/405 66/201/406 
f 66/201/406 27/202/407 400/199/404 
s 4
f 18/203/408 402/204/409 403/205/410 
f 403/205/410 16/206/411 18/203/408 
f 404/207/412 26/208/413 405/209/414 
f 26/208/413 14/210/415 406/211/416 
f 406/211/416 405/209/414 26/208/413 
f 403/205/410 406/211/416 14/210/415 
f 14/210/415 16/206/411 403/205/410 
s 1
f 25/189/394 22/212/417 407/213/418 
f 407/213/418 395/190/395 25/189/394 
s 4
f 399/197/402 408/214/419 39/215/420 
f 39/215/420 38/198/403 399/197/402 
f 39/215/420 408/214/419 409/216/421 
f 409/216/421 410/217/422 39/215/420 
s 1
f 411/218/423 407/213/418 22/212/417 
f 22/212/417 20/219/424 411/218/423 
f 412/220/425 411/218/423 20/219/424 
f 20/219/424 66/201/406 412/220/425 
s 8
f 27/202/407 26/208/413 404/207/412 
f 404/207/412 400/199/404 27/202/407 
s 1
f 401/200/405 412/220/425 66/201/406 
s 4
f 18/203/408 413/221/426 414/222/427 
f 414/222/427 402/204/409 18/203/408 
f 413/221/426 8/186/391 393/185/390 
f 393/185/390 414/222/427 413/221/426 
f 79/223/428 415/224/429 77/184/389 
f 77/184/389 76/225/430 79/223/428 
f 415/224/429 392/183/388 77/184/389 
s 1
f 416/175/431 417/178/432 193/177/433 
f 193/177/433 192/176/434 416/175/431 
f 418/179/435 419/182/436 164/181/436 
f 164/181/436 158/180/437 418/179/435 
f 164/181/436 419/182/436 420/183/438 
f 420/183/438 227/184/439 164/181/436 
s 4
f 160/186/440 421/185/441 418/179/435 
f 418/179/435 158/180/437 160/186/440 
s 1
f 422/187/442 423/190/443 176/189/444 
f 176/189/444 216/188/445 422/187/442 
f 216/188/445 215/192/446 424/191/447 
f 424/191/447 422/187/442 216/188/445 
f 417/178/432 424/191/447 215/192/446 
f 215/192/446 193/177/433 417/178/432 
f 192/176/434 191/194/448 425/193/449 
f 425/193/449 416/175/431 192/176/434 
f 190/196/450 426/195/451 425/193/449 
f 425/193/449 191/194/448 190/196/450 
f 427/197/452 426/195/451 190/196/450 
f 190/196/450 189/198/453 427/197/452 
s 8
f 428/199/454 177/202/455 217/201/456 
f 217/201/456 429/200/457 428/199/454 
s 4
f 169/203/458 166/206/459 430/205/460 
f 430/205/460 431/204/461 169/203/458 
f 432/207/462 433/209/463 178/208/464 
f 433/209/463 434/211/465 165/210/466 
f 165/210/466 178/208/464 433/209/463 
f 166/206/459 165/210/466 434/211/465 
f 434/211/465 430/205/460 166/206/459 
s 1
f 173/212/467 176/189/444 423/190/443 
f 423/190/443 435/213/468 173/212/467 
s 4
f 436/214/469 427/197/452 189/198/453 
f 189/198/453 188/215/470 436/214/469 
f 437/217/471 438/216/472 436/214/469 
f 436/214/469 188/215/470 437/217/471 
s 1
f 172/219/473 173/212/467 435/213/468 
f 435/213/468 439/218/474 172/219/473 
f 172/219/473 439/218/474 440/220/475 
f 440/220/475 217/201/456 172/219/473 
s 8
f 178/208/464 177/202/455 428/199/454 
f 428/199/454 432/207/462 178/208/464 
s 1
f 429/200/457 217/201/456 440/220/475 
s 4
f 431/204/461 441/222/476 442/221/477 
f 442/221/477 169/203/458 431/204/461 
f 442/221/477 441/222/476 421/185/441 
f 421/185/441 160/186/440 442/221/477 
f 443/224/478 229/223/479 228/225/480 
f 228/225/480 227/184/439 443/224/478 
f 443/224/478 227/184/439 420/183/438 
f 444/226/481 24/227/482 23/228/483 
f 23/228/483 445/229/484 444/226/481 
s 2
f 446/230/485 444/226/481 447/231/486 
f 447/231/486 448/232/487 446/230/485 
s 4
f 444/226/481 446/230/485 24/227/482 
f 449/233/488 450/234/489 410/235/490 
s 1
f 451/236/491 452/237/492 453/238/493 
f 453/238/493 454/239/494 451/236/491 
f 455/240/495 456/241/496 457/242/497 
f 457/242/497 410/235/490 455/240/495 
s 8
f 453/238/493 458/243/498 454/239/494 
s 2
f 451/236/491 454/239/494 457/242/497 
f 457/242/497 459/244/499 451/236/491 
s 16
f 458/243/498 36/245/500 454/239/494 
s 4
f 459/244/499 460/246/501 461/247/502 
f 461/247/502 452/237/492 459/244/499 
f 445/229/484 23/228/483 36/245/500 
f 36/245/500 458/243/498 445/229/484 
s 2
f 453/238/493 445/229/484 458/243/498 
f 462/248/503 445/229/484 453/238/493 
s 1
f 462/248/503 453/238/493 452/237/492 
f 452/237/492 461/247/502 462/248/503 
s 8
f 456/241/496 462/248/503 461/247/502 
f 461/247/502 460/246/501 456/241/496 
s 1
f 463/249/504 456/241/496 455/240/495 
f 455/240/495 464/250/505 463/249/504 
s 2
f 457/242/497 454/239/494 36/245/500 
f 36/245/500 410/235/490 457/242/497 
s 1
f 465/251/506 466/252/507 450/234/489 
f 450/234/489 467/253/508 465/251/506 
s 2
f 465/251/506 468/254/509 469/255/510 
f 469/255/510 455/240/495 465/251/506 
f 470/256/511 471/257/512 472/258/513 
f 472/258/513 473/259/514 470/256/511 
f 474/260/515 475/261/516 471/257/512 
f 471/257/512 470/256/511 474/260/515 
f 410/235/490 36/245/500 39/235/517 
s 4
f 409/262/518 476/263/519 410/235/490 
f 476/263/519 449/233/488 410/235/490 
s 1
f 467/253/508 450/234/489 449/233/488 
f 449/233/488 473/259/514 467/253/508 
s 4
f 472/258/513 467/253/508 473/259/514 
f 468/254/509 465/251/506 467/253/508 
f 467/253/508 472/258/513 468/254/509 
s 16
f 473/259/514 449/233/488 476/263/519 
f 476/263/519 470/256/511 473/259/514 
s 8
f 476/263/519 409/262/518 474/260/515 
f 474/260/515 470/256/511 476/263/519 
s 16
f 459/244/499 457/242/497 456/241/496 
f 456/241/496 460/246/501 459/244/499 
s 4
f 451/236/491 459/244/499 452/237/492 
f 455/240/495 410/235/490 450/234/489 
f 450/234/489 466/252/507 455/240/495 
s 2
f 466/252/507 465/251/506 455/240/495 
f 462/248/503 456/241/496 463/249/504 
f 463/249/504 477/264/520 462/248/503 
f 447/231/486 444/226/481 445/229/484 
f 445/229/484 478/265/521 447/231/486 
f 478/265/521 445/229/484 462/248/503 
f 462/248/503 477/264/520 478/265/521 
s 8
f 479/266/522 464/250/505 455/240/495 
f 455/240/495 469/255/510 479/266/522 
s 4
f 480/226/523 481/229/524 175/228/525 
f 175/228/525 174/227/526 480/226/523 
s 2
f 447/231/486 480/226/523 482/230/527 
f 482/230/527 448/232/487 447/231/486 
s 4
f 480/226/523 174/227/526 482/230/527 
f 483/233/528 437/235/529 484/234/530 
s 1
f 485/236/531 486/239/532 487/238/533 
f 487/238/533 488/237/534 485/236/531 
f 489/242/535 490/241/536 491/240/537 
f 491/240/537 437/235/529 489/242/535 
s 8
f 487/238/533 486/239/532 492/243/538 
s 2
f 485/236/531 493/244/539 489/242/535 
f 489/242/535 486/239/532 485/236/531 
s 16
f 492/243/538 486/239/532 187/245/540 
s 4
f 494/247/541 495/246/542 493/244/539 
f 493/244/539 488/237/534 494/247/541 
f 481/229/524 492/243/538 187/245/540 
f 187/245/540 175/228/525 481/229/524 
s 2
f 487/238/533 492/243/538 481/229/524 
f 496/248/543 487/238/533 481/229/524 
s 1
f 494/247/541 488/237/534 487/238/533 
f 487/238/533 496/248/543 494/247/541 
s 8
f 495/246/542 494/247/541 496/248/543 
f 496/248/543 490/241/536 495/246/542 
s 1
f 491/240/537 490/241/536 463/249/504 
f 463/249/504 464/250/505 491/240/537 
s 2
f 187/245/540 486/239/532 489/242/535 
f 489/242/535 437/235/529 187/245/540 
s 1
f 497/251/544 498/253/545 484/234/530 
f 484/234/530 499/252/546 497/251/544 
s 2
f 500/255/547 501/254/548 497/251/544 
f 497/251/544 491/240/537 500/255/547 
f 502/257/549 503/256/550 504/259/551 
f 504/259/551 505/258/552 502/257/549 
f 503/256/550 502/257/549 506/261/553 
f 506/261/553 507/260/554 503/256/550 
f 437/235/529 188/235/555 187/245/540 
s 4
f 438/262/556 437/235/529 508/263/557 
f 508/263/557 437/235/529 483/233/528 
s 1
f 504/259/551 483/233/528 484/234/530 
f 484/234/530 498/253/545 504/259/551 
s 4
f 505/258/552 504/259/551 498/253/545 
f 498/253/545 497/251/544 501/254/548 
f 501/254/548 505/258/552 498/253/545 
s 16
f 503/256/550 508/263/557 483/233/528 
f 483/233/528 504/259/551 503/256/550 
s 8
f 507/260/554 438/262/556 508/263/557 
f 508/263/557 503/256/550 507/260/554 
s 16
f 495/246/542 490/241/536 489/242/535 
f 489/242/535 493/244/539 495/246/542 
s 4
f 485/236/531 488/237/534 493/244/539 
f 484/234/530 437/235/529 491/240/537 
f 491/240/537 499/252/546 484/234/530 
s 2
f 499/252/546 491/240/537 497/251/544 
f 463/249/504 490/241/536 496/248/543 
f 496/248/543 477/264/520 463/249/504 
f 480/226/523 447/231/486 478/265/521 
f 478/265/521 481/229/524 480/226/523 
f 477/264/520 496/248/543 481/229/524 
f 481/229/524 478/265/521 477/264/520 
s 8
f 491/240/537 464/250/505 479/266/522 
f 479/266/522 500/255/547 491/240/537 
s 1
f 509/267/558 2/268/559 24/269/560 
f 24/269/560 510/270/561 509/267/558 
f 3/271/562 511/272/563 512/273/564 
f 512/273/564 5/274/565 3/271/562 
f 510/270/561 24/269/560 446/275/566 
f 509/267/558 511/272/563 3/271/562 
f 3/271/562 2/268/559 509/267/558 
s 8
f 513/276/567 512/273/564 511/272/563 
f 512/273/564 513/276/567 514/277/568 
f 514/277/568 5/274/565 512/273/564 
f 511/272/563 515/278/569 516/279/570 
f 516/279/570 513/276/567 511/272/563 
f 446/275/566 448/280/571 517/281/572 
f 517/281/572 510/270/561 446/275/566 
f 513/276/567 516/279/570 518/282/573 
f 518/282/573 514/277/568 513/276/567 
f 510/270/561 517/281/572 519/283/574 
f 519/283/574 509/267/558 510/270/561 
f 519/283/574 515/278/569 511/272/563 
f 511/272/563 509/267/558 519/283/574 
s 1
f 155/268/575 520/267/576 521/270/577 
f 521/270/577 174/269/578 155/268/575 
f 154/271/579 157/274/580 522/273/581 
f 522/273/581 523/272/582 154/271/579 
f 521/270/577 482/275/583 174/269/578 
f 520/267/576 155/268/575 154/271/579 
f 154/271/579 523/272/582 520/267/576 
s 8
f 524/276/584 523/272/582 522/273/581 
f 525/277/585 524/276/584 522/273/581 
f 522/273/581 157/274/580 525/277/585 
f 516/279/570 515/278/569 523/272/582 
f 523/272/582 524/276/584 516/279/570 
f 521/270/577 517/281/572 448/280/571 
f 448/280/571 482/275/583 521/270/577 
f 518/282/573 516/279/570 524/276/584 
f 524/276/584 525/277/585 518/282/573 
f 520/267/576 519/283/574 517/281/572 
f 517/281/572 521/270/577 520/267/576 
f 520/267/576 523/272/582 515/278/569 
f 515/278/569 519/283/574 520/267/576 
s 1
f 348/284/586 526/285/587 527/286/588 
f 527/286/588 349/287/589 348/284/586 
f 348/284/586 355/288/590 301/289/591 
f 301/289/591 526/285/587 348/284/586 
f 527/286/588 528/290/592 351/291/593 
f 351/291/593 349/287/589 527/286/588 
f 528/290/592 529/292/594 530/293/595 
f 530/293/595 531/294/596 528/290/592 
f 531/294/596 530/293/595 376/295/597 
f 376/295/597 375/296/598 531/294/596 
f 529/292/594 528/290/592 527/286/588 
f 351/291/593 528/290/592 531/294/596 
f 531/294/596 350/297/599 351/291/593 
f 531/294/596 375/296/598 356/298/600 
f 356/298/600 350/297/599 531/294/596 
f 532/299/601 378/300/602 377/301/603 
f 377/301/603 533/302/604 532/299/601 
f 534/303/605 315/304/606 314/305/607 
f 314/305/607 322/306/608 534/303/605 
f 532/299/601 529/292/594 527/286/588 
f 527/286/588 535/307/609 532/299/601 
f 535/307/609 527/286/588 526/285/587 
f 526/285/587 534/303/605 535/307/609 
f 530/293/595 529/292/594 532/299/601 
f 532/299/601 533/302/604 530/293/595 
f 315/304/606 534/303/605 526/285/587 
f 526/285/587 306/308/610 315/304/606 
f 302/309/611 301/289/591 355/288/590 
f 355/288/590 359/310/612 302/309/611 
f 359/310/612 358/311/613 304/312/614 
f 304/312/614 302/309/611 359/310/612 
f 301/289/591 306/308/610 526/285/587 
f 358/311/613 357/313/615 380/314/616 
f 380/314/616 304/312/614 358/311/613 
f 304/312/614 380/314/616 379/315/617 
f 379/315/617 322/306/608 304/312/614 
f 535/307/609 534/303/605 322/306/608 
f 532/299/601 535/307/609 378/300/602 
f 376/295/597 530/293/595 533/302/604 
f 533/302/604 377/301/603 376/295/597 
f 322/306/608 379/315/617 378/300/602 
f 378/300/602 535/307/609 322/306/608 
f 536/286/618 537/285/619 363/284/620 
f 363/284/620 362/287/621 536/286/618 
f 369/288/622 363/284/620 537/285/619 
f 537/285/619 323/289/623 369/288/622 
f 538/290/624 536/286/618 362/287/621 
f 362/287/621 364/291/625 538/290/624 
f 539/294/626 540/293/627 541/292/628 
f 541/292/628 538/290/624 539/294/626 
f 383/295/629 540/293/627 539/294/626 
f 539/294/626 382/296/630 383/295/629 
f 541/292/628 536/286/618 538/290/624 
f 365/297/631 539/294/626 538/290/624 
f 538/290/624 364/291/625 365/297/631 
f 370/298/632 382/296/630 539/294/626 
f 539/294/626 365/297/631 370/298/632 
f 384/301/633 385/300/634 542/299/635 
f 542/299/635 543/302/636 384/301/633 
f 338/305/637 337/304/638 544/303/639 
f 544/303/639 345/306/640 338/305/637 
f 541/292/628 542/299/635 545/307/641 
f 545/307/641 536/286/618 541/292/628 
f 536/286/618 545/307/641 544/303/639 
f 544/303/639 537/285/619 536/286/618 
f 542/299/635 541/292/628 540/293/627 
f 540/293/627 543/302/636 542/299/635 
f 544/303/639 337/304/638 329/308/642 
f 329/308/642 537/285/619 544/303/639 
f 323/289/623 326/309/643 373/310/644 
f 373/310/644 369/288/622 323/289/623 
f 327/312/645 371/311/646 373/310/644 
f 373/310/644 326/309/643 327/312/645 
f 323/289/623 537/285/619 329/308/642 
f 327/312/645 387/314/647 372/313/648 
f 372/313/648 371/311/646 327/312/645 
f 387/314/647 327/312/645 345/306/640 
f 345/306/640 386/315/649 387/314/647 
f 545/307/641 345/306/640 544/303/639 
f 542/299/635 385/300/634 545/307/641 
f 540/293/627 383/295/629 384/301/633 
f 384/301/633 543/302/636 540/293/627 
f 345/306/640 545/307/641 385/300/634 
f 385/300/634 386/315/649 345/306/640 
f 546/316/650 547/317/651 548/318/652 
f 548/318/652 549/319/653 546/316/650 
s 3
f 549/319/653 550/320/654 551/321/655 
f 551/321/655 546/316/650 549/319/653 
s 2
f 550/320/654 552/322/656 553/323/657 
f 553/323/657 551/321/655 550/320/654 
f 552/324/656 554/325/658 555/326/659 
f 555/326/659 553/327/657 552/324/656 
f 554/325/658 556/328/660 557/329/661 
f 557/329/661 555/326/659 554/325/658 
f 557/329/661 556/328/660 558/330/662 
f 558/330/662 559/331/663 557/329/661 
f 558/330/662 560/332/664 561/333/665 
f 561/333/665 559/331/663 558/330/662 
f 560/332/664 562/334/666 563/335/667 
f 563/335/667 561/333/665 560/332/664 
f 564/336/668 563/335/667 562/334/666 
f 562/334/666 565/337/669 564/336/668 
f 565/337/669 566/338/670 567/339/671 
f 567/339/671 564/336/668 565/337/669 
f 568/340/672 567/339/671 566/338/670 
f 566/338/670 569/341/673 568/340/672 
f 569/341/673 570/342/674 571/343/675 
f 571/343/675 568/340/672 569/341/673 
f 571/343/675 570/342/674 572/344/676 
f 572/344/676 573/345/677 571/343/675 
f 574/346/678 575/347/679 573/345/677 
f 573/345/677 572/344/676 574/346/678 
f 575/347/679 574/346/678 576/348/680 
f 576/348/680 577/349/681 575/347/679 
f 577/349/681 576/348/680 578/350/682 
f 578/350/682 579/351/683 577/349/681 
f 578/350/682 580/352/684 581/353/685 
f 581/353/685 579/351/683 578/350/682 
f 580/352/684 582/354/686 583/355/687 
f 583/355/687 581/353/685 580/352/684 
f 583/355/687 582/354/686 584/356/688 
f 584/356/688 585/357/689 583/355/687 
s 3
f 548/318/652 547/317/651 585/357/689 
f 585/357/689 584/356/688 548/318/652 
s off
f 586/358/690 587/359/691 588/360/692 
f 587/359/691 589/361/693 588/360/692 
f 589/361/693 590/362/694 588/360/692 
f 590/362/694 591/363/695 588/360/692 
f 591/363/695 592/364/696 588/360/692 
f 592/364/696 593/365/697 588/360/692 
f 593/365/697 594/366/698 588/360/692 
f 594/366/698 595/367/699 588/360/692 
f 595/367/699 596/368/700 588/360/692 
f 596/368/700 597/369/701 588/360/692 
f 597/369/701 598/370/702 588/360/692 
f 598/370/702 599/371/703 588/360/692 
f 599/371/703 600/372/704 588/360/692 
f 600/372/704 601/373/705 588/360/692 
f 601/373/705 602/374/706 588/360/692 
f 602/374/706 603/375/707 588/360/692 
f 603/375/707 604/376/708 588/360/692 
f 604/376/708 605/377/709 588/360/692 
f 605/377/709 606/378/710 588/360/692 
f 606/378/710 586/358/690 588/360/692 
f 547/379/651 546/380/650 607/381/711 
f 546/380/650 551/382/655 607/381/711 
f 551/382/655 553/383/657 607/381/711 
f 553/383/657 555/384/659 607/381/711 
f 555/384/659 557/385/661 607/381/711 
f 557/385/661 559/386/663 607/381/711 
f 559/386/663 561/387/665 607/381/711 
f 561/387/665 563/388/667 607/381/711 
f 563/388/667 564/389/668 607/381/711 
f 564/389/668 567/390/671 607/381/711 
f 567/390/671 568/391/672 607/381/711 
f 568/391/672 571/392/675 607/381/711 
f 571/392/675 573/393/677 607/381/711 
f 573/393/677 575/394/679 607/381/711 
f 575/394/679 577/395/681 607/381/711 
f 577/395/681 579/396/683 607/381/711 
f 579/396/683 581/397/685 607/381/711 
f 581/397/685 583/398/687 607/381/711 
f 583/398/687 585/399/689 607/381/711 
f 585/399/689 547/379/651 607/381/711 
f 549/400/653 548/401/652 587/359/691 
f 587/359/691 586/358/690 549/400/653 
f 587/359/691 548/401/652 584/402/688 
f 584/402/688 589/361/693 587/359/691 
f 582/403/686 590/362/694 589/361/693 
f 589/361/693 584/402/688 582/403/686 
f 580/404/684 591/363/695 590/362/694 
f 590/362/694 582/403/686 580/404/684 
f 580/404/684 578/405/682 592/364/696 
f 592/364/696 591/363/695 580/404/684 
f 576/406/680 593/365/697 592/364/696 
f 592/364/696 578/405/682 576/406/680 
f 574/407/678 594/366/698 593/365/697 
f 593/365/697 576/406/680 574/407/678 
f 594/366/698 574/407/678 572/408/676 
f 572/408/676 595/367/699 594/366/698 
f 570/409/674 596/368/700 595/367/699 
f 595/367/699 572/408/676 570/409/674 
f 570/409/674 569/410/673 597/369/701 
f 597/369/701 596/368/700 570/409/674 
f 566/411/670 598/370/702 597/369/701 
f 597/369/701 569/410/673 566/411/670 
f 598/370/702 566/411/670 565/412/669 
f 565/412/669 599/371/703 598/370/702 
f 562/413/666 600/372/704 599/371/703 
f 599/371/703 565/412/669 562/413/666 
f 600/372/704 562/413/666 560/414/664 
f 560/414/664 601/373/705 600/372/704 
f 602/374/706 601/373/705 560/414/664 
f 560/414/664 558/415/662 602/374/706 
f 603/375/707 602/374/706 558/415/662 
f 558/415/662 556/416/660 603/375/707 
f 603/375/707 556/416/660 554/417/658 
f 554/417/658 604/376/708 603/375/707 
f 552/418/656 605/377/709 604/376/708 
f 604/376/708 554/417/658 552/418/656 
f 550/419/654 606/378/710 605/377/709 
f 605/377/709 552/418/656 550/419/654 
f 549/400/653 586/358/690 606/378/710 
f 606/378/710 550/419/654 549/400/653 
# 1008 faces

