# 3ds Max Wavefront OBJ Exporter v0.99 - (c)2007 guruware
# File Created: 28.03.2025 22:54:05

mtllib espejo.mtl

#
# object Espejo
#

v  -1.3819 -2.3592 6.1161
v  -1.7271 -2.9563 6.9960
v  1.7271 2.9461 6.2624
v  1.7245 2.9563 4.5030
v  -1.3894 -2.3432 4.2722
v  -1.3925 -2.3366 3.5168
v  1.6990 2.9291 -0.0000
v  -1.4068 -2.3060 -0.0000
v  -1.3819 -2.3592 -6.1161
v  1.7271 2.9461 -6.2624
v  -1.7271 -2.9563 -6.9960
v  -1.3894 -2.3432 -4.2721
v  1.7245 2.9563 -4.5030
v  -1.3925 -2.3366 -3.5168
# 14 vertices

vn -0.8628 0.5055 0.0059
vn -0.8628 0.5055 0.0045
vn -0.8628 0.5055 0.0042
vn -0.8621 0.5068 0.0033
vn -0.8623 0.5063 0.0079
vn -0.8600 0.5102 -0.0000
vn -0.8628 0.5055 -0.0059
vn -0.8628 0.5055 -0.0042
vn -0.8628 0.5055 -0.0045
vn -0.8623 0.5063 -0.0079
vn -0.8621 0.5068 -0.0033
# 11 vertex normals

vt 0.7816 0.4986 0.0000
vt 0.8587 0.5224 0.0000
vt 0.7868 0.7284 0.0000
vt 0.7081 0.7288 0.0000
vt 0.6978 0.4785 0.0000
vt 0.6640 0.4788 0.0000
vt 0.5068 0.7276 0.0000
vt 0.5068 0.4803 0.0000
vt 0.2359 0.4960 0.0000
vt 0.2267 0.7284 0.0000
vt 0.1484 0.5217 0.0000
vt 0.3157 0.4785 0.0000
vt 0.3054 0.7288 0.0000
vt 0.3495 0.4788 0.0000
# 14 texture coords

o Espejo
g Espejo
usemtl Mercedes_G_Class_Standard00FF80
s 16
f 1/1/1 2/2/2 3/3/3 
f 4/4/4 5/5/5 1/1/1 
f 1/1/1 3/3/3 4/4/4 
f 6/6/5 5/5/5 4/4/4 
f 6/6/5 4/4/4 7/7/6 
f 7/7/6 8/8/6 6/6/5 
f 9/9/7 10/10/8 11/11/9 
f 12/12/10 13/13/11 10/10/8 
f 10/10/8 9/9/7 12/12/10 
f 14/14/10 13/13/11 12/12/10 
f 8/8/6 7/7/6 13/13/11 
f 13/13/11 14/14/10 8/8/6 
# 12 faces

