# 3ds Max Wavefront OBJ Exporter v0.99 - (c)2007 guruware
# File Created: 28.03.2025 23:03:54

mtllib LlantaDD.mtl

#
# object LlantaDI
#

v  3.4527 1.1493 1.3245
v  3.6384 0.0000 1.3245
v  3.6384 0.0000 -1.3245
v  3.4527 1.1493 -1.3245
v  2.9359 2.1480 -1.3245
v  2.9359 2.1480 1.3245
v  2.1480 2.9359 -1.3245
v  2.1480 2.9359 1.3245
v  1.1493 3.4527 -1.3245
v  1.1493 3.4527 1.3245
v  0.0000 3.6384 -1.3245
v  0.0000 3.6384 1.3245
v  -1.1493 3.4527 -1.3245
v  -1.1493 3.4527 1.3245
v  -2.1480 2.9359 -1.3245
v  -2.1480 2.9359 1.3245
v  -2.9359 2.1480 -1.3245
v  -2.9359 2.1480 1.3245
v  -3.4527 1.1493 1.3245
v  -3.4527 1.1493 -1.3245
v  -3.6384 0.0000 -1.3245
v  -3.6384 0.0000 1.3245
v  -3.4527 -1.1493 1.3245
v  -3.4527 -1.1493 -1.3245
v  -2.9359 -2.1480 -1.3245
v  -2.9359 -2.1480 1.3245
v  -2.1480 -2.9359 -1.3245
v  -2.1480 -2.9359 1.3245
v  -1.1493 -3.4527 -1.3245
v  -1.1493 -3.4527 1.3245
v  0.0000 -3.6384 -1.3245
v  0.0000 -3.6384 1.3245
v  1.1493 -3.4527 -1.3245
v  1.1493 -3.4527 1.3245
v  2.1480 -2.9359 -1.3245
v  2.1480 -2.9359 1.3245
v  2.9359 -2.1480 -1.3245
v  2.9359 -2.1480 1.3245
v  3.4527 -1.1493 -1.3245
v  3.4527 -1.1493 1.3245
v  0.0000 0.0000 -1.3245
v  0.0000 0.0000 1.3245
# 42 vertices

vn 0.7022 0.2318 0.6732
vn 0.7397 0.0000 0.6729
vn 0.7397 0.0000 -0.6729
vn 0.7022 0.2318 -0.6732
vn 0.5961 0.4360 -0.6742
vn 0.5961 0.4360 0.6742
vn 0.4360 0.5961 -0.6742
vn 0.4360 0.5961 0.6742
vn 0.2318 0.7022 -0.6732
vn 0.2318 0.7022 0.6732
vn 0.0000 0.7397 -0.6729
vn 0.0000 0.7397 0.6729
vn -0.2318 0.7022 -0.6732
vn -0.2318 0.7022 0.6732
vn -0.4360 0.5961 -0.6742
vn -0.4360 0.5961 0.6742
vn -0.5961 0.4360 -0.6742
vn -0.5961 0.4360 0.6742
vn -0.7022 0.2318 0.6732
vn -0.7022 0.2318 -0.6732
vn -0.7397 0.0000 -0.6729
vn -0.7397 0.0000 0.6729
vn -0.7022 -0.2318 0.6732
vn -0.7022 -0.2318 -0.6732
vn -0.5961 -0.4360 -0.6742
vn -0.5961 -0.4360 0.6742
vn -0.4360 -0.5961 -0.6742
vn -0.4360 -0.5961 0.6742
vn -0.2318 -0.7022 -0.6732
vn -0.2318 -0.7022 0.6732
vn 0.0000 -0.7397 -0.6729
vn 0.0000 -0.7397 0.6729
vn 0.2318 -0.7022 -0.6732
vn 0.2318 -0.7022 0.6732
vn 0.4360 -0.5961 -0.6742
vn 0.4360 -0.5961 0.6742
vn 0.5961 -0.4360 -0.6742
vn 0.5961 -0.4360 0.6742
vn 0.7022 -0.2318 -0.6732
vn 0.7022 -0.2318 0.6732
vn 0.0000 0.0000 -1.0000
vn 0.0000 0.0000 1.0000
# 42 vertex normals

vt 0.5647 0.0376 -0.2500
vt 0.5753 0.0376 -0.2500
vt 0.5753 0.0666 -0.2500
vt 0.5647 0.0666 -0.2500
vt 0.5544 0.0666 -0.2500
vt 0.5544 0.0376 -0.2500
vt 0.5441 0.0666 -0.2500
vt 0.5441 0.0376 -0.2500
vt 0.5338 0.0666 -0.2500
vt 0.5338 0.0376 -0.2500
vt 0.5231 0.0666 0.2500
vt 0.5231 0.0376 -0.2500
vt 0.5125 0.0666 -0.2500
vt 0.5125 0.0376 -0.2500
vt 0.5022 0.0666 -0.2500
vt 0.5022 0.0376 -0.2500
vt 0.4920 0.0666 -0.2500
vt 0.4920 0.0376 -0.2500
vt 0.4817 0.0376 -0.2500
vt 0.4817 0.0666 -0.2500
vt 0.4710 0.0666 -0.2500
vt 0.4710 0.0376 -0.2500
vt 0.4603 0.0376 -0.2500
vt 0.4603 0.0666 -0.2500
vt 0.4500 0.0666 -0.2500
vt 0.4500 0.0376 -0.2500
vt 0.4398 0.0666 -0.2500
vt 0.4398 0.0376 -0.2500
vt 0.4295 0.0666 -0.2500
vt 0.4295 0.0376 -0.2500
vt 0.4188 0.0666 0.2500
vt 0.4188 0.0376 -0.2500
vt 0.4081 0.0666 -0.2500
vt 0.4081 0.0376 -0.2500
vt 0.3978 0.0666 -0.2500
vt 0.3978 0.0376 -0.2500
vt 0.3876 0.0666 -0.2500
vt 0.3876 0.0376 -0.2500
vt 0.3773 0.0666 -0.2500
vt 0.3773 0.0376 -0.2500
vt 0.3666 0.0666 -0.2500
vt 0.3666 0.0376 -0.2500
vt 0.9694 0.6629 0.5000
vt 0.9953 0.5040 0.5000
vt 0.4959 0.5040 0.5000
vt 0.9694 0.3467 0.5000
vt 0.8991 0.2093 0.5000
vt 0.7907 0.1008 0.5000
vt 0.6532 0.0306 0.5000
vt 0.4959 0.0046 0.5000
vt 0.3371 0.0306 0.5000
vt 0.2012 0.1008 0.5000
vt 0.0928 0.2093 0.5000
vt 0.0210 0.3467 0.5000
vt -0.0035 0.5040 0.5000
vt 0.0210 0.6629 0.5000
vt 0.0928 0.7988 0.5000
vt 0.2012 0.9072 0.5000
vt 0.3371 0.9790 0.5000
vt 0.4959 1.0034 0.5000
vt 0.6532 0.9790 0.5000
vt 0.7907 0.9072 0.5000
vt 0.8991 0.7988 0.5000
vt 0.9929 0.5049 1.5000
vt 0.9674 0.6621 1.5000
vt 0.4955 0.5049 1.5000
vt 0.8968 0.7987 1.5000
vt 0.7889 0.9066 1.5000
vt 0.6523 0.9772 1.5000
vt 0.4955 1.0027 1.5000
vt 0.3383 0.9772 1.5000
vt 0.2017 0.9066 1.5000
vt 0.0937 0.7987 1.5000
vt 0.0232 0.6621 1.5000
vt -0.0023 0.5049 1.5000
vt 0.0232 0.3480 1.5000
vt 0.0937 0.2114 1.5000
vt 0.2017 0.1035 1.5000
vt 0.3383 0.0329 1.5000
vt 0.4955 0.0074 1.5000
vt 0.6523 0.0329 1.5000
vt 0.7889 0.1035 1.5000
vt 0.8968 0.2114 1.5000
vt 0.9674 0.3480 1.5000
# 84 texture coords

o LlantaDI
g LlantaDI
usemtl Mercedes_G_Class_Standard00FF80
s 1
f 1/1/1 2/2/2 3/3/3 
f 3/3/3 4/4/4 1/1/1 
s 3
f 4/4/4 5/5/5 6/6/6 
f 6/6/6 1/1/1 4/4/4 
s 2
f 5/5/5 7/7/7 8/8/8 
f 8/8/8 6/6/6 5/5/5 
f 7/7/7 9/9/9 10/10/10 
f 10/10/10 8/8/8 7/7/7 
f 9/9/9 11/11/11 12/12/12 
f 12/12/12 10/10/10 9/9/9 
f 12/12/12 11/11/11 13/13/13 
f 13/13/13 14/14/14 12/12/12 
f 13/13/13 15/15/15 16/16/16 
f 16/16/16 14/14/14 13/13/13 
f 15/15/15 17/17/17 18/18/18 
f 18/18/18 16/16/16 15/15/15 
f 19/19/19 18/18/18 17/17/17 
f 17/17/17 20/20/20 19/19/19 
f 20/20/20 21/21/21 22/22/22 
f 22/22/22 19/19/19 20/20/20 
f 23/23/23 22/22/22 21/21/21 
f 21/21/21 24/24/24 23/23/23 
f 24/24/24 25/25/25 26/26/26 
f 26/26/26 23/23/23 24/24/24 
f 26/26/26 25/25/25 27/27/27 
f 27/27/27 28/28/28 26/26/26 
f 29/29/29 30/30/30 28/28/28 
f 28/28/28 27/27/27 29/29/29 
f 30/30/30 29/29/29 31/31/31 
f 31/31/31 32/32/32 30/30/30 
f 32/32/32 31/31/31 33/33/33 
f 33/33/33 34/34/34 32/32/32 
f 33/33/33 35/35/35 36/36/36 
f 36/36/36 34/34/34 33/33/33 
f 35/35/35 37/37/37 38/38/38 
f 38/38/38 36/36/36 35/35/35 
f 38/38/38 37/37/37 39/39/39 
f 39/39/39 40/40/40 38/38/38 
s 3
f 3/41/3 2/42/2 40/40/40 
f 40/40/40 39/39/39 3/41/3 
s off
f 4/43/4 3/44/3 41/45/41 
f 3/44/3 39/46/39 41/45/41 
f 39/46/39 37/47/37 41/45/41 
f 37/47/37 35/48/35 41/45/41 
f 35/48/35 33/49/33 41/45/41 
f 33/49/33 31/50/31 41/45/41 
f 31/50/31 29/51/29 41/45/41 
f 29/51/29 27/52/27 41/45/41 
f 27/52/27 25/53/25 41/45/41 
f 25/53/25 24/54/24 41/45/41 
f 24/54/24 21/55/21 41/45/41 
f 21/55/21 20/56/20 41/45/41 
f 20/56/20 17/57/17 41/45/41 
f 17/57/17 15/58/15 41/45/41 
f 15/58/15 13/59/13 41/45/41 
f 13/59/13 11/60/11 41/45/41 
f 11/60/11 9/61/9 41/45/41 
f 9/61/9 7/62/7 41/45/41 
f 7/62/7 5/63/5 41/45/41 
f 5/63/5 4/43/4 41/45/41 
f 2/64/2 1/65/1 42/66/42 
f 1/65/1 6/67/6 42/66/42 
f 6/67/6 8/68/8 42/66/42 
f 8/68/8 10/69/10 42/66/42 
f 10/69/10 12/70/12 42/66/42 
f 12/70/12 14/71/14 42/66/42 
f 14/71/14 16/72/16 42/66/42 
f 16/72/16 18/73/18 42/66/42 
f 18/73/18 19/74/19 42/66/42 
f 19/74/19 22/75/22 42/66/42 
f 22/75/22 23/76/23 42/66/42 
f 23/76/23 26/77/26 42/66/42 
f 26/77/26 28/78/28 42/66/42 
f 28/78/28 30/79/30 42/66/42 
f 30/79/30 32/80/32 42/66/42 
f 32/80/32 34/81/34 42/66/42 
f 34/81/34 36/82/36 42/66/42 
f 36/82/36 38/83/38 42/66/42 
f 38/83/38 40/84/40 42/66/42 
f 40/84/40 2/64/2 42/66/42 
# 80 faces

