# 3ds Max Wavefront OBJ Exporter v0.99 - (c)2007 guruware
# File Created: 28.03.2025 23:14:41

mtllib LlantaTI.mtl

#
# object LlantaDD
#

v  3.4527 1.1493 -1.3245
v  3.4527 1.1493 1.3245
v  3.6384 0.0000 1.3245
v  3.6384 0.0000 -1.3245
v  2.9359 2.1480 1.3245
v  2.9359 2.1480 -1.3245
v  2.1480 2.9359 -1.3245
v  2.1480 2.9359 1.3245
v  1.1493 3.4527 -1.3245
v  1.1493 3.4527 1.3245
v  0.0000 3.6384 -1.3245
v  0.0000 3.6384 1.3245
v  -1.1493 3.4527 -1.3245
v  -1.1493 3.4527 1.3245
v  -2.1480 2.9359 -1.3245
v  -2.1480 2.9359 1.3245
v  -2.9359 2.1480 -1.3245
v  -2.9359 2.1480 1.3245
v  -3.4527 1.1493 -1.3245
v  -3.4527 1.1493 1.3245
v  -3.6384 0.0000 -1.3245
v  -3.6384 0.0000 1.3245
v  -3.4527 -1.1493 -1.3245
v  -3.4527 -1.1493 1.3245
v  -2.9359 -2.1480 -1.3245
v  -2.9359 -2.1480 1.3245
v  -2.1480 -2.9359 -1.3245
v  -2.1480 -2.9359 1.3245
v  -1.1493 -3.4527 -1.3245
v  -1.1493 -3.4527 1.3245
v  0.0000 -3.6384 -1.3245
v  0.0000 -3.6384 1.3245
v  1.1493 -3.4527 -1.3245
v  1.1493 -3.4527 1.3245
v  2.1480 -2.9359 -1.3245
v  2.1480 -2.9359 1.3245
v  2.9359 -2.1480 -1.3245
v  2.9359 -2.1480 1.3245
v  3.4527 -1.1493 -1.3245
v  3.4527 -1.1493 1.3245
v  0.0000 0.0000 1.3245
v  0.0000 0.0000 -1.3245
# 42 vertices

vn 0.7022 0.2318 -0.6732
vn 0.7022 0.2318 0.6732
vn 0.7397 0.0000 0.6729
vn 0.7397 0.0000 -0.6729
vn 0.5961 0.4360 0.6742
vn 0.5962 0.4360 -0.6741
vn 0.4360 0.5961 -0.6742
vn 0.4360 0.5961 0.6742
vn 0.2318 0.7022 -0.6732
vn 0.2318 0.7022 0.6732
vn 0.0000 0.7397 -0.6729
vn 0.0000 0.7397 0.6729
vn -0.2318 0.7022 -0.6732
vn -0.2318 0.7022 0.6732
vn -0.4360 0.5961 -0.6742
vn -0.4360 0.5961 0.6742
vn -0.5961 0.4360 -0.6742
vn -0.5961 0.4360 0.6742
vn -0.7022 0.2318 -0.6732
vn -0.7022 0.2318 0.6732
vn -0.7397 0.0000 -0.6729
vn -0.7397 0.0000 0.6729
vn -0.7022 -0.2318 -0.6732
vn -0.7022 -0.2318 0.6732
vn -0.5961 -0.4360 -0.6742
vn -0.5961 -0.4360 0.6742
vn -0.4360 -0.5961 -0.6742
vn -0.4360 -0.5961 0.6742
vn -0.2318 -0.7022 -0.6732
vn -0.2318 -0.7022 0.6732
vn 0.0000 -0.7397 -0.6729
vn 0.0000 -0.7397 0.6729
vn 0.2318 -0.7022 -0.6732
vn 0.2318 -0.7022 0.6732
vn 0.4360 -0.5962 -0.6741
vn 0.4360 -0.5962 0.6741
vn 0.5961 -0.4360 -0.6742
vn 0.5961 -0.4360 0.6742
vn 0.7022 -0.2318 -0.6732
vn 0.7022 -0.2318 0.6732
vn 0.0000 0.0000 1.0000
vn 0.0000 0.0000 -1.0000
# 42 vertex normals

vt 0.7057 0.0806 -0.2500
vt 0.7018 0.0966 -0.2500
vt 0.7077 0.0981 -0.2500
vt 0.7116 0.0821 -0.2500
vt 0.6961 0.0952 -0.2500
vt 0.7000 0.0792 -0.2500
vt 0.6944 0.0778 -0.2500
vt 0.6904 0.0938 -0.2500
vt 0.6887 0.0764 -0.2500
vt 0.6847 0.0924 -0.2500
vt 0.6828 0.0749 -0.2500
vt 0.6788 0.0910 0.2500
vt 0.6769 0.0735 -0.2500
vt 0.6729 0.0895 -0.2500
vt 0.6712 0.0721 -0.2500
vt 0.6673 0.0881 -0.2500
vt 0.6656 0.0707 -0.2500
vt 0.6616 0.0867 -0.2500
vt 0.6599 0.0693 -0.2500
vt 0.6559 0.0853 -0.2500
vt 0.6540 0.0678 -0.2500
vt 0.6500 0.0838 -0.2500
vt 0.6481 0.0663 -0.2500
vt 0.6441 0.0824 -0.2500
vt 0.6424 0.0649 -0.2500
vt 0.6384 0.0810 -0.2500
vt 0.6368 0.0635 -0.2500
vt 0.6328 0.0796 -0.2500
vt 0.6311 0.0621 -0.2500
vt 0.6271 0.0781 -0.2500
vt 0.6252 0.0607 -0.2500
vt 0.6212 0.0767 0.2500
vt 0.6193 0.0592 -0.2500
vt 0.6153 0.0752 -0.2500
vt 0.6136 0.0578 -0.2500
vt 0.6096 0.0738 -0.2500
vt 0.6080 0.0564 -0.2500
vt 0.6040 0.0724 -0.2500
vt 0.6023 0.0550 -0.2500
vt 0.5983 0.0710 -0.2500
vt 0.5924 0.0696 -0.2500
vt 0.5964 0.0535 -0.2500
vt 0.9664 0.6577 0.5000
vt 0.4953 0.4996 0.5000
vt 0.9922 0.4996 0.5000
vt 0.9664 0.3431 0.5000
vt 0.8965 0.2063 0.5000
vt 0.7886 0.0984 0.5000
vt 0.6518 0.0285 0.5000
vt 0.4953 0.0027 0.5000
vt 0.3372 0.0285 0.5000
vt 0.2020 0.0984 0.5000
vt 0.0941 0.2063 0.5000
vt 0.0227 0.3431 0.5000
vt -0.0017 0.4996 0.5000
vt 0.0227 0.6577 0.5000
vt 0.0941 0.7929 0.5000
vt 0.2020 0.9008 0.5000
vt 0.3372 0.9722 0.5000
vt 0.4953 0.9966 0.5000
vt 0.6518 0.9722 0.5000
vt 0.7886 0.9008 0.5000
vt 0.8965 0.7929 0.5000
vt 0.9918 0.5015 1.5000
vt 0.4953 0.5015 1.5000
vt 0.9664 0.6584 1.5000
vt 0.8959 0.7947 1.5000
vt 0.7882 0.9025 1.5000
vt 0.6518 0.9729 1.5000
vt 0.4953 0.9984 1.5000
vt 0.3384 0.9729 1.5000
vt 0.2020 0.9025 1.5000
vt 0.0943 0.7947 1.5000
vt 0.0238 0.6584 1.5000
vt -0.0016 0.5015 1.5000
vt 0.0238 0.3449 1.5000
vt 0.0943 0.2086 1.5000
vt 0.2020 0.1008 1.5000
vt 0.3384 0.0304 1.5000
vt 0.4953 0.0049 1.5000
vt 0.6518 0.0304 1.5000
vt 0.7882 0.1008 1.5000
vt 0.8959 0.2086 1.5000
vt 0.9664 0.3449 1.5000
# 84 texture coords

o LlantaDD
g LlantaDD
usemtl Mercedes_G_Class_Standard00FF80
s 1
f 1/1/1 2/2/2 3/3/3 
f 3/3/3 4/4/4 1/1/1 
s 3
f 5/5/5 2/2/2 1/1/1 
f 1/1/1 6/6/6 5/5/5 
s 2
f 6/6/6 7/7/7 8/8/8 
f 8/8/8 5/5/5 6/6/6 
f 8/8/8 7/7/7 9/9/9 
f 9/9/9 10/10/10 8/8/8 
f 11/11/11 12/12/12 10/10/10 
f 10/10/10 9/9/9 11/11/11 
f 13/13/13 14/14/14 12/12/12 
f 12/12/12 11/11/11 13/13/13 
f 14/14/14 13/13/13 15/15/15 
f 15/15/15 16/16/16 14/14/14 
f 16/16/16 15/15/15 17/17/17 
f 17/17/17 18/18/18 16/16/16 
f 18/18/18 17/17/17 19/19/19 
f 19/19/19 20/20/20 18/18/18 
f 20/20/20 19/19/19 21/21/21 
f 21/21/21 22/22/22 20/20/20 
f 22/22/22 21/21/21 23/23/23 
f 23/23/23 24/24/24 22/22/22 
f 23/23/23 25/25/25 26/26/26 
f 26/26/26 24/24/24 23/23/23 
f 25/25/25 27/27/27 28/28/28 
f 28/28/28 26/26/26 25/25/25 
f 28/28/28 27/27/27 29/29/29 
f 29/29/29 30/30/30 28/28/28 
f 30/30/30 29/29/29 31/31/31 
f 31/31/31 32/32/32 30/30/30 
f 32/32/32 31/31/31 33/33/33 
f 33/33/33 34/34/34 32/32/32 
f 34/34/34 33/33/33 35/35/35 
f 35/35/35 36/36/36 34/34/34 
f 36/36/36 35/35/35 37/37/37 
f 37/37/37 38/38/38 36/36/36 
f 37/37/37 39/39/39 40/40/40 
f 40/40/40 38/38/38 37/37/37 
s 3
f 3/41/3 40/40/40 39/39/39 
f 39/39/39 4/42/4 3/41/3 
s off
f 2/43/2 41/44/41 3/45/3 
f 3/45/3 41/44/41 40/46/40 
f 40/46/40 41/44/41 38/47/38 
f 38/47/38 41/44/41 36/48/36 
f 36/48/36 41/44/41 34/49/34 
f 34/49/34 41/44/41 32/50/32 
f 32/50/32 41/44/41 30/51/30 
f 30/51/30 41/44/41 28/52/28 
f 28/52/28 41/44/41 26/53/26 
f 26/53/26 41/44/41 24/54/24 
f 24/54/24 41/44/41 22/55/22 
f 22/55/22 41/44/41 20/56/20 
f 20/56/20 41/44/41 18/57/18 
f 18/57/18 41/44/41 16/58/16 
f 16/58/16 41/44/41 14/59/14 
f 14/59/14 41/44/41 12/60/12 
f 12/60/12 41/44/41 10/61/10 
f 10/61/10 41/44/41 8/62/8 
f 8/62/8 41/44/41 5/63/5 
f 5/63/5 41/44/41 2/43/2 
f 4/64/4 42/65/42 1/66/1 
f 1/66/1 42/65/42 6/67/6 
f 6/67/6 42/65/42 7/68/7 
f 7/68/7 42/65/42 9/69/9 
f 9/69/9 42/65/42 11/70/11 
f 11/70/11 42/65/42 13/71/13 
f 13/71/13 42/65/42 15/72/15 
f 15/72/15 42/65/42 17/73/17 
f 17/73/17 42/65/42 19/74/19 
f 19/74/19 42/65/42 21/75/21 
f 21/75/21 42/65/42 23/76/23 
f 23/76/23 42/65/42 25/77/25 
f 25/77/25 42/65/42 27/78/27 
f 27/78/27 42/65/42 29/79/29 
f 29/79/29 42/65/42 31/80/31 
f 31/80/31 42/65/42 33/81/33 
f 33/81/33 42/65/42 35/82/35 
f 35/82/35 42/65/42 37/83/37 
f 37/83/37 42/65/42 39/84/39 
f 39/84/39 42/65/42 4/64/4 
# 80 faces

