# 3ds Max Wavefront OBJ Exporter v0.99 - (c)2007 guruware
# File Created: 28.03.2025 23:32:40

mtllib parrilla.mtl

#
# object Parrilla
#

v  -0.6027 2.7855 -0.0000
v  -0.5373 2.6936 3.4513
v  -0.3824 2.9745 3.3861
v  -0.4385 2.9973 -0.0000
v  0.0218 0.2094 6.0621
v  0.2601 0.2844 6.2600
v  0.4243 2.4476 6.3969
v  0.1632 2.2370 6.1605
v  -1.0627 0.0898 4.0935
v  -0.7818 0.1567 3.9447
v  -0.4508 0.1576 3.6661
v  -1.1294 0.1072 3.4308
v  0.0411 2.7533 5.8084
v  0.1405 2.6271 6.0816
v  0.3839 2.8487 6.3275
v  0.3024 3.0262 5.8543
v  -0.4697 2.7274 3.9554
v  -0.4930 2.2770 3.9957
v  -0.3957 2.7330 4.3133
v  -0.1649 3.0066 4.3618
v  -0.1342 0.1055 6.9248
v  -0.5084 2.2400 3.7092
v  -0.4655 2.7237 3.7277
v  -0.3005 2.9858 3.7554
v  -0.7627 2.1879 -0.0000
v  -0.5532 2.2296 3.5204
v  -0.7281 -2.1291 4.2493
v  0.1545 -2.1773 6.8167
v  -0.8209 -1.7092 3.5453
v  -0.0926 -1.8600 3.5144
v  -0.1383 -2.2388 4.2245
v  -0.0926 -2.0924 3.5788
v  1.0269 -3.0232 4.2441
v  0.4826 -2.1601 6.9799
v  1.1675 -2.1018 6.8808
v  -0.6117 0.1620 -0.0000
v  -1.1675 0.0816 -0.0000
v  -0.8321 -1.6826 -0.0000
v  -0.0955 -1.8622 -0.0000
v  1.0213 -3.0262 -0.0000
v  -0.0939 -2.0991 -0.0000
v  -0.3824 2.9745 -3.3861
v  -0.5373 2.6936 -3.4513
v  0.1632 2.2370 -6.1604
v  0.4243 2.4476 -6.3969
v  0.2601 0.2844 -6.2600
v  0.0218 0.2094 -6.0621
v  -1.1294 0.1072 -3.4308
v  -0.4508 0.1576 -3.6661
v  -0.7818 0.1567 -3.9446
v  -1.0627 0.0898 -4.0935
v  0.1405 2.6271 -6.0816
v  0.0411 2.7533 -5.8084
v  0.3024 3.0262 -5.8543
v  0.3839 2.8487 -6.3275
v  -0.4697 2.7274 -3.9554
v  -0.3957 2.7330 -4.3133
v  -0.4930 2.2770 -3.9957
v  -0.1649 3.0066 -4.3618
v  -0.1342 0.1055 -6.9248
v  -0.5084 2.2400 -3.7091
v  -0.4655 2.7237 -3.7277
v  -0.3005 2.9858 -3.7554
v  -0.5532 2.2296 -3.5204
v  -0.7281 -2.1291 -4.2493
v  0.1545 -2.1773 -6.8167
v  -0.8209 -1.7092 -3.5453
v  -0.0926 -1.8600 -3.5144
v  -0.1383 -2.2388 -4.2245
v  -0.0926 -2.0924 -3.5788
v  1.0269 -3.0232 -4.2441
v  0.4826 -2.1601 -6.9799
v  1.1675 -2.1018 -6.8808
# 73 vertices

vn -0.8950 0.4461 -0.0000
vn -0.9557 0.2699 0.1178
vn -0.8633 0.4968 0.0889
vn -0.7903 0.6127 -0.0000
vn -0.6412 0.6881 0.3396
vn -0.6285 0.5521 0.5478
vn -0.6875 0.0379 0.7252
vn -0.8369 0.0338 0.5463
vn -0.8171 0.5496 0.1742
vn -0.6728 0.6493 -0.3547
vn -0.7453 0.5881 -0.3141
vn -0.7901 0.6113 0.0447
vn -0.8710 0.3546 0.3401
vn -0.8533 0.1609 0.4960
vn -0.7963 0.2792 0.5367
vn -0.7147 0.6351 0.2932
vn -0.9376 0.3348 0.0934
vn -0.9831 0.0842 0.1623
vn -0.9136 0.3364 0.2284
vn -0.7662 0.6110 0.1991
vn -0.9003 0.3308 0.2830
vn -0.9896 0.0246 0.1416
vn -0.9410 0.3251 0.0938
vn -0.8199 0.5591 0.1231
vn -0.9958 0.0916 -0.0000
vn -0.9891 0.0080 0.1468
vn -0.7060 -0.7067 -0.0463
vn -0.4444 -0.8854 0.1362
vn -0.7822 -0.6126 -0.1135
vn -0.7327 -0.6568 -0.1782
vn -0.4108 -0.9023 -0.1309
vn -0.9036 -0.4231 -0.0672
vn -0.5881 -0.8003 0.1171
vn 0.0710 -0.9974 0.0125
vn 0.1263 -0.9385 0.3212
vn -0.7724 0.6351 -0.0000
vn -0.8174 0.5761 -0.0000
vn -0.7268 -0.6868 -0.0000
vn -0.7843 -0.6203 -0.0000
vn -0.6393 -0.7690 -0.0000
vn -0.9037 -0.4281 -0.0000
vn -0.8633 0.4968 -0.0889
vn -0.9557 0.2699 -0.1178
vn -0.8369 0.0338 -0.5463
vn -0.6875 0.0379 -0.7252
vn -0.6285 0.5521 -0.5478
vn -0.6412 0.6881 -0.3396
vn -0.7901 0.6113 -0.0447
vn -0.7453 0.5881 0.3141
vn -0.6728 0.6493 0.3547
vn -0.8171 0.5496 -0.1742
vn -0.8533 0.1609 -0.4960
vn -0.8710 0.3546 -0.3401
vn -0.7147 0.6351 -0.2932
vn -0.7963 0.2792 -0.5367
vn -0.9376 0.3348 -0.0934
vn -0.9136 0.3364 -0.2284
vn -0.9831 0.0842 -0.1623
vn -0.7662 0.6110 -0.1991
vn -0.9003 0.3308 -0.2830
vn -0.9896 0.0246 -0.1416
vn -0.9410 0.3251 -0.0938
vn -0.8199 0.5591 -0.1231
vn -0.9891 0.0080 -0.1468
vn -0.7060 -0.7067 0.0463
vn -0.4444 -0.8854 -0.1362
vn -0.7822 -0.6126 0.1135
vn -0.7327 -0.6568 0.1782
vn -0.4108 -0.9023 0.1309
vn -0.9036 -0.4231 0.0672
vn -0.5881 -0.8003 -0.1171
vn 0.0710 -0.9974 -0.0125
vn 0.1263 -0.9385 -0.3212
# 73 vertex normals

vt 0.3126 0.5650 0.0000
vt 0.4862 0.5743 0.0000
vt 0.4809 0.5955 0.0000
vt 0.3111 0.5812 0.0000
vt 0.6350 0.3963 0.0000
vt 0.6444 0.4030 0.0000
vt 0.6356 0.5694 0.0000
vt 0.6253 0.5522 0.0000
vt 0.5282 0.3622 0.0000
vt 0.5293 0.3823 0.0000
vt 0.5076 0.3901 0.0000
vt 0.5092 0.3552 0.0000
vt 0.6039 0.5901 0.0000
vt 0.6185 0.5817 0.0000
vt 0.6292 0.5998 0.0000
vt 0.6042 0.6112 0.0000
vt 0.5112 0.5793 0.0000
vt 0.5165 0.5450 0.0000
vt 0.5291 0.5814 0.0000
vt 0.5295 0.6026 0.0000
vt 0.6790 0.3925 0.0000
vt 0.5024 0.5408 0.0000
vt 0.4998 0.5779 0.0000
vt 0.4993 0.5981 0.0000
vt 0.3169 0.5192 0.0000
vt 0.4930 0.5391 0.0000
vt 0.5612 0.2086 0.0000
vt 0.6537 0.2418 0.0000
vt 0.5229 0.2374 0.0000
vt 0.5224 0.2257 0.0000
vt 0.5607 0.2000 0.0000
vt 0.5273 0.2082 0.0000
vt 0.5674 0.1400 0.0000
vt 0.6618 0.2165 0.0000
vt 0.6551 0.1776 0.0000
vt 0.2838 0.3611 0.0000
vt 0.2854 0.3317 0.0000
vt 0.2839 0.2200 0.0000
vt 0.2839 0.1958 0.0000
vt 0.3548 0.1196 0.0000
vt 0.2882 0.1751 0.0000
vt 0.1416 0.5634 0.0000
vt 0.1403 0.5415 0.0000
vt 0.0079 0.4937 0.0000
vt -0.0055 0.5087 0.0000
vt 0.0353 0.3436 0.0000
vt 0.0471 0.3635 0.0000
vt 0.1601 0.3435 0.0000
vt 0.1714 0.3566 0.0000
vt 0.1288 0.3604 0.0000
vt 0.1167 0.3247 0.0000
vt 0.0090 0.5240 0.0000
vt 0.0218 0.5349 0.0000
vt 0.0175 0.5556 0.0000
vt -0.0049 0.5398 0.0000
vt 0.1148 0.5417 0.0000
vt 0.0969 0.5405 0.0000
vt 0.1161 0.5070 0.0000
vt 0.0925 0.5612 0.0000
vt 0.0293 0.3046 0.0000
vt 0.1307 0.5056 0.0000
vt 0.1263 0.5425 0.0000
vt 0.1230 0.5625 0.0000
vt 0.1402 0.5057 0.0000
vt 0.1354 0.1682 0.0000
vt 0.0214 0.1706 0.0000
vt 0.1676 0.2037 0.0000
vt 0.1702 0.1923 0.0000
vt 0.1374 0.1599 0.0000
vt 0.1687 0.1742 0.0000
vt 0.1421 0.0997 0.0000
vt 0.0196 0.1555 0.0000
vt 0.0189 0.1526 0.0000
# 73 texture coords

o Parrilla
g Parrilla
usemtl Mercedes_G_Class_Standard00FF80
s 2
f 1/1/1 2/2/2 3/3/3 
f 3/3/3 4/4/4 1/1/1 
f 5/5/5 6/6/6 7/7/7 
f 7/7/7 8/8/8 5/5/5 
s 1
f 9/9/9 10/10/10 11/11/11 
f 11/11/11 12/12/12 9/9/9 
s 2
f 13/13/13 14/14/14 15/15/15 
f 15/15/15 16/16/16 13/13/13 
f 17/17/17 18/18/18 19/19/19 
f 19/19/19 18/18/18 8/8/8 
f 8/8/8 13/13/13 19/19/19 
f 20/20/20 19/19/19 13/13/13 
f 13/13/13 16/16/16 20/20/20 
s 1
f 9/9/9 21/21/21 5/5/5 
f 5/5/5 10/10/10 9/9/9 
s 2
f 7/7/7 15/15/15 14/14/14 
f 14/14/14 8/8/8 7/7/7 
f 22/22/22 18/18/18 17/17/17 
f 17/17/17 23/23/23 22/22/22 
f 17/17/17 19/19/19 20/20/20 
f 20/20/20 24/24/24 17/17/17 
f 25/25/25 26/26/26 2/2/2 
f 2/2/2 1/1/1 25/25/25 
f 26/26/26 22/22/22 23/23/23 
f 23/23/23 2/2/2 26/26/26 
s 4
f 22/22/22 11/11/11 10/10/10 
f 10/10/10 18/18/18 22/22/22 
s 2
f 26/26/26 11/11/11 22/22/22 
f 23/23/23 17/17/17 24/24/24 
f 3/3/3 2/2/2 23/23/23 
f 23/23/23 24/24/24 3/3/3 
f 14/14/14 13/13/13 8/8/8 
f 27/27/27 28/28/28 21/21/21 
f 21/21/21 9/9/9 27/27/27 
f 10/10/10 5/5/5 8/8/8 
f 8/8/8 18/18/18 10/10/10 
s 1
f 6/6/6 5/5/5 21/21/21 
s 2
f 9/9/9 12/12/12 29/29/29 
f 29/29/29 27/27/27 9/9/9 
s 4
f 30/30/30 31/31/31 27/27/27 
f 27/27/27 29/29/29 30/30/30 
s 2
f 32/32/32 31/31/31 30/30/30 
s 1
f 33/33/33 31/31/31 32/32/32 
s off
f 34/34/34 31/31/31 33/33/33 
f 33/33/33 35/35/35 34/34/34 
f 31/31/31 34/34/34 28/28/28 
f 28/28/28 27/27/27 31/31/31 
s 2
f 26/26/26 25/25/25 36/36/36 
f 36/36/36 11/11/11 26/26/26 
s 1
f 11/11/11 36/36/36 37/37/37 
f 37/37/37 12/12/12 11/11/11 
f 29/29/29 38/38/38 39/39/39 
f 39/39/39 30/30/30 29/29/29 
s 2
f 12/12/12 37/37/37 38/38/38 
f 38/38/38 29/29/29 12/12/12 
s 1
f 40/40/40 33/33/33 32/32/32 
f 32/32/32 41/41/41 40/40/40 
s 2
f 30/30/30 39/39/39 41/41/41 
f 41/41/41 32/32/32 30/30/30 
f 42/42/42 43/43/43 1/1/1 
f 1/1/1 4/4/4 42/42/42 
f 44/44/44 45/45/45 46/46/46 
f 46/46/46 47/47/47 44/44/44 
s 1
f 48/48/48 49/49/49 50/50/50 
f 50/50/50 51/51/51 48/48/48 
s 2
f 52/52/52 53/53/53 54/54/54 
f 54/54/54 55/55/55 52/52/52 
f 56/56/56 57/57/57 58/58/58 
f 44/44/44 58/58/58 57/57/57 
f 57/57/57 53/53/53 44/44/44 
f 59/59/59 54/54/54 53/53/53 
f 53/53/53 57/57/57 59/59/59 
s 1
f 51/51/51 50/50/50 47/47/47 
f 47/47/47 60/60/60 51/51/51 
s 2
f 52/52/52 55/55/55 45/45/45 
f 45/45/45 44/44/44 52/52/52 
f 58/58/58 61/61/61 62/62/62 
f 62/62/62 56/56/56 58/58/58 
f 57/57/57 56/56/56 63/63/63 
f 63/63/63 59/59/59 57/57/57 
f 64/64/64 25/25/25 1/1/1 
f 1/1/1 43/43/43 64/64/64 
f 43/43/43 62/62/62 61/61/61 
f 61/61/61 64/64/64 43/43/43 
s 4
f 61/61/61 58/58/58 50/50/50 
f 50/50/50 49/49/49 61/61/61 
s 2
f 64/64/64 61/61/61 49/49/49 
f 62/62/62 63/63/63 56/56/56 
f 63/63/63 62/62/62 43/43/43 
f 43/43/43 42/42/42 63/63/63 
f 52/52/52 44/44/44 53/53/53 
f 65/65/65 51/51/51 60/60/60 
f 60/60/60 66/66/66 65/65/65 
f 58/58/58 44/44/44 47/47/47 
f 47/47/47 50/50/50 58/58/58 
s 1
f 46/46/46 60/60/60 47/47/47 
s 2
f 65/65/65 67/67/67 48/48/48 
f 48/48/48 51/51/51 65/65/65 
s 4
f 68/68/68 67/67/67 65/65/65 
f 65/65/65 69/69/69 68/68/68 
s 2
f 70/70/70 68/68/68 69/69/69 
s 1
f 71/71/71 70/70/70 69/69/69 
s off
f 71/71/71 69/69/69 72/72/72 
f 72/72/72 73/73/73 71/71/71 
f 69/69/69 65/65/65 66/66/66 
f 66/66/66 72/72/72 69/69/69 
s 2
f 64/64/64 49/49/49 36/36/36 
f 36/36/36 25/25/25 64/64/64 
s 1
f 36/36/36 49/49/49 48/48/48 
f 48/48/48 37/37/37 36/36/36 
f 38/38/38 67/67/67 68/68/68 
f 68/68/68 39/39/39 38/38/38 
s 2
f 38/38/38 37/37/37 48/48/48 
f 48/48/48 67/67/67 38/38/38 
s 1
f 40/40/40 41/41/41 70/70/70 
f 70/70/70 71/71/71 40/40/40 
s 2
f 39/39/39 68/68/68 70/70/70 
f 70/70/70 41/41/41 39/39/39 
# 118 faces

